<mxfile host="app.diagrams.net" agent="Mozilla/5.0 (Windows NT 10.0; Win64; x64) AppleWebKit/537.36 (KHTML, like Gecko) Chrome/134.0.0.0 Safari/537.36" version="26.1.0">
  <diagram name="Página-1" id="SjMdchpZisMZht7t7rA3">
    <mxGraphModel dx="9397" dy="3980" grid="0" gridSize="10" guides="1" tooltips="1" connect="1" arrows="1" fold="1" page="0" pageScale="1" pageWidth="1169" pageHeight="827" math="0" shadow="0">
      <root>
        <mxCell id="0" />
        <mxCell id="1" parent="0" />
        <mxCell id="SdlsA0JNyUcxq9mWWmF1-257" value="" style="rounded=1;whiteSpace=wrap;html=1;absoluteArcSize=1;arcSize=14;strokeWidth=2;sketch=1;hachureGap=4;jiggle=2;curveFitting=1;fontFamily=Architects Daughter;fontSource=https%3A%2F%2Ffonts.googleapis.com%2Fcss%3Ffamily%3DArchitects%2BDaughter;" vertex="1" parent="1">
          <mxGeometry x="-2283" y="-188" width="5461" height="3081" as="geometry" />
        </mxCell>
        <mxCell id="SdlsA0JNyUcxq9mWWmF1-35" value="Pessoa" style="shape=table;childLayout=tableLayout;startSize=46;collapsible=0;recursiveResize=0;expand=0;sketch=1;hachureGap=4;jiggle=2;curveFitting=1;fontFamily=Architects Daughter;fontSource=https%3A%2F%2Ffonts.googleapis.com%2Fcss%3Ffamily%3DArchitects%2BDaughter;fontSize=26;" vertex="1" parent="1">
          <mxGeometry x="-1298.94" y="1394" width="716" height="358.96" as="geometry" />
        </mxCell>
        <mxCell id="SdlsA0JNyUcxq9mWWmF1-36" value="" style="shape=tableRow;horizontal=0;swimlaneHead=0;swimlaneBody=0;top=0;left=0;strokeColor=inherit;bottom=0;right=0;dropTarget=0;fontStyle=0;fillColor=none;points=[[0,0.5],[1,0.5]];portConstraint=eastwest;startSize=5;collapsible=0;recursiveResize=0;expand=0;sketch=1;hachureGap=4;jiggle=2;curveFitting=1;fontFamily=Architects Daughter;fontSource=https%3A%2F%2Ffonts.googleapis.com%2Fcss%3Ffamily%3DArchitects%2BDaughter;" vertex="1" parent="SdlsA0JNyUcxq9mWWmF1-35">
          <mxGeometry y="46" width="716" height="132" as="geometry" />
        </mxCell>
        <mxCell id="SdlsA0JNyUcxq9mWWmF1-37" value="ID" style="swimlane;swimlaneHead=0;swimlaneBody=0;fontStyle=0;strokeColor=inherit;connectable=0;fillColor=none;startSize=46;collapsible=0;recursiveResize=0;expand=0;sketch=1;hachureGap=4;jiggle=2;curveFitting=1;fontFamily=Architects Daughter;fontSource=https%3A%2F%2Ffonts.googleapis.com%2Fcss%3Ffamily%3DArchitects%2BDaughter;fontSize=22;" vertex="1" parent="SdlsA0JNyUcxq9mWWmF1-36">
          <mxGeometry x="5" width="58" height="132" as="geometry">
            <mxRectangle width="58" height="132" as="alternateBounds" />
          </mxGeometry>
        </mxCell>
        <mxCell id="SdlsA0JNyUcxq9mWWmF1-226" value="&lt;font style=&quot;font-size: 30px;&quot;&gt;1&lt;/font&gt;" style="text;html=1;align=center;verticalAlign=middle;resizable=0;points=[];autosize=1;strokeColor=none;fillColor=none;fontSize=20;fontFamily=Architects Daughter;fontSource=https%3A%2F%2Ffonts.googleapis.com%2Fcss%3Ffamily%3DArchitects%2BDaughter;" vertex="1" parent="SdlsA0JNyUcxq9mWWmF1-37">
          <mxGeometry x="19" y="67" width="22" height="48" as="geometry" />
        </mxCell>
        <mxCell id="SdlsA0JNyUcxq9mWWmF1-38" value="nome" style="swimlane;swimlaneHead=0;swimlaneBody=0;fontStyle=0;strokeColor=inherit;connectable=0;fillColor=none;startSize=46;collapsible=0;recursiveResize=0;expand=0;sketch=1;hachureGap=4;jiggle=2;curveFitting=1;fontFamily=Architects Daughter;fontSource=https%3A%2F%2Ffonts.googleapis.com%2Fcss%3Ffamily%3DArchitects%2BDaughter;fontSize=23;" vertex="1" parent="SdlsA0JNyUcxq9mWWmF1-36">
          <mxGeometry x="63" width="239" height="132" as="geometry">
            <mxRectangle width="239" height="132" as="alternateBounds" />
          </mxGeometry>
        </mxCell>
        <mxCell id="SdlsA0JNyUcxq9mWWmF1-181" value="João Vitor" style="text;html=1;align=center;verticalAlign=middle;resizable=0;points=[];autosize=1;strokeColor=none;fillColor=none;fontSize=20;fontFamily=Architects Daughter;fontSource=https%3A%2F%2Ffonts.googleapis.com%2Fcss%3Ffamily%3DArchitects%2BDaughter;" vertex="1" parent="SdlsA0JNyUcxq9mWWmF1-38">
          <mxGeometry x="62.5" y="73" width="115" height="36" as="geometry" />
        </mxCell>
        <mxCell id="SdlsA0JNyUcxq9mWWmF1-39" value="idade" style="swimlane;swimlaneHead=0;swimlaneBody=0;fontStyle=0;strokeColor=inherit;connectable=0;fillColor=none;startSize=46;collapsible=0;recursiveResize=0;expand=0;sketch=1;hachureGap=4;jiggle=2;curveFitting=1;fontFamily=Architects Daughter;fontSource=https%3A%2F%2Ffonts.googleapis.com%2Fcss%3Ffamily%3DArchitects%2BDaughter;fontSize=23;" vertex="1" parent="SdlsA0JNyUcxq9mWWmF1-36">
          <mxGeometry x="302" width="110" height="132" as="geometry">
            <mxRectangle width="110" height="132" as="alternateBounds" />
          </mxGeometry>
        </mxCell>
        <mxCell id="SdlsA0JNyUcxq9mWWmF1-184" value="21" style="text;html=1;align=center;verticalAlign=middle;resizable=0;points=[];autosize=1;strokeColor=none;fillColor=none;fontSize=20;fontFamily=Architects Daughter;fontSource=https%3A%2F%2Ffonts.googleapis.com%2Fcss%3Ffamily%3DArchitects%2BDaughter;" vertex="1" parent="SdlsA0JNyUcxq9mWWmF1-39">
          <mxGeometry x="46.5" y="73" width="32" height="36" as="geometry" />
        </mxCell>
        <mxCell id="SdlsA0JNyUcxq9mWWmF1-40" value="altura" style="swimlane;swimlaneHead=0;swimlaneBody=0;fontStyle=0;strokeColor=inherit;connectable=0;fillColor=none;startSize=46;collapsible=0;recursiveResize=0;expand=0;sketch=1;hachureGap=4;jiggle=2;curveFitting=1;fontFamily=Architects Daughter;fontSource=https%3A%2F%2Ffonts.googleapis.com%2Fcss%3Ffamily%3DArchitects%2BDaughter;fontSize=23;" vertex="1" parent="SdlsA0JNyUcxq9mWWmF1-36">
          <mxGeometry x="412" width="127" height="132" as="geometry">
            <mxRectangle width="127" height="132" as="alternateBounds" />
          </mxGeometry>
        </mxCell>
        <mxCell id="SdlsA0JNyUcxq9mWWmF1-187" value="1.80" style="text;html=1;align=center;verticalAlign=middle;resizable=0;points=[];autosize=1;strokeColor=none;fillColor=none;fontSize=20;fontFamily=Architects Daughter;fontSource=https%3A%2F%2Ffonts.googleapis.com%2Fcss%3Ffamily%3DArchitects%2BDaughter;" vertex="1" parent="SdlsA0JNyUcxq9mWWmF1-40">
          <mxGeometry x="39" y="73" width="49" height="36" as="geometry" />
        </mxCell>
        <mxCell id="SdlsA0JNyUcxq9mWWmF1-41" value="endereco_id" style="swimlane;swimlaneHead=0;swimlaneBody=0;fontStyle=0;strokeColor=inherit;connectable=0;fillColor=none;startSize=46;collapsible=0;recursiveResize=0;expand=0;sketch=1;hachureGap=4;jiggle=2;curveFitting=1;fontFamily=Architects Daughter;fontSource=https%3A%2F%2Ffonts.googleapis.com%2Fcss%3Ffamily%3DArchitects%2BDaughter;fontSize=23;" vertex="1" parent="SdlsA0JNyUcxq9mWWmF1-36">
          <mxGeometry x="539" width="157" height="132" as="geometry">
            <mxRectangle width="157" height="132" as="alternateBounds" />
          </mxGeometry>
        </mxCell>
        <mxCell id="SdlsA0JNyUcxq9mWWmF1-190" value="1" style="text;html=1;align=center;verticalAlign=middle;resizable=0;points=[];autosize=1;strokeColor=none;fillColor=none;fontSize=20;fontFamily=Architects Daughter;fontSource=https%3A%2F%2Ffonts.googleapis.com%2Fcss%3Ffamily%3DArchitects%2BDaughter;" vertex="1" parent="SdlsA0JNyUcxq9mWWmF1-41">
          <mxGeometry x="68.5" y="73" width="21" height="36" as="geometry" />
        </mxCell>
        <mxCell id="SdlsA0JNyUcxq9mWWmF1-42" value="" style="swimlane;swimlaneHead=0;swimlaneBody=0;fontStyle=0;strokeColor=inherit;connectable=0;fillColor=none;startSize=46;collapsible=0;recursiveResize=0;expand=0;sketch=1;hachureGap=4;jiggle=2;curveFitting=1;fontFamily=Architects Daughter;fontSource=https%3A%2F%2Ffonts.googleapis.com%2Fcss%3Ffamily%3DArchitects%2BDaughter;" vertex="1" parent="SdlsA0JNyUcxq9mWWmF1-36">
          <mxGeometry x="696" width="20" height="132" as="geometry">
            <mxRectangle width="20" height="132" as="alternateBounds" />
          </mxGeometry>
        </mxCell>
        <mxCell id="SdlsA0JNyUcxq9mWWmF1-43" value="" style="shape=tableRow;horizontal=0;swimlaneHead=0;swimlaneBody=0;top=0;left=0;strokeColor=inherit;bottom=0;right=0;dropTarget=0;fontStyle=0;fillColor=none;points=[[0,0.5],[1,0.5]];portConstraint=eastwest;startSize=5;collapsible=0;recursiveResize=0;expand=0;sketch=1;hachureGap=4;jiggle=2;curveFitting=1;fontFamily=Architects Daughter;fontSource=https%3A%2F%2Ffonts.googleapis.com%2Fcss%3Ffamily%3DArchitects%2BDaughter;" vertex="1" parent="SdlsA0JNyUcxq9mWWmF1-35">
          <mxGeometry y="178" width="716" height="100" as="geometry" />
        </mxCell>
        <mxCell id="SdlsA0JNyUcxq9mWWmF1-44" value="" style="swimlane;swimlaneHead=0;swimlaneBody=0;fontStyle=0;connectable=0;strokeColor=inherit;fillColor=none;startSize=0;collapsible=0;recursiveResize=0;expand=0;sketch=1;hachureGap=4;jiggle=2;curveFitting=1;fontFamily=Architects Daughter;fontSource=https%3A%2F%2Ffonts.googleapis.com%2Fcss%3Ffamily%3DArchitects%2BDaughter;" vertex="1" parent="SdlsA0JNyUcxq9mWWmF1-43">
          <mxGeometry x="5" width="58" height="100" as="geometry">
            <mxRectangle width="58" height="100" as="alternateBounds" />
          </mxGeometry>
        </mxCell>
        <mxCell id="SdlsA0JNyUcxq9mWWmF1-179" value="&lt;font style=&quot;font-size: 30px;&quot;&gt;2&lt;/font&gt;" style="text;html=1;align=center;verticalAlign=middle;resizable=0;points=[];autosize=1;strokeColor=none;fillColor=none;fontSize=20;fontFamily=Architects Daughter;fontSource=https%3A%2F%2Ffonts.googleapis.com%2Fcss%3Ffamily%3DArchitects%2BDaughter;" vertex="1" parent="SdlsA0JNyUcxq9mWWmF1-44">
          <mxGeometry x="14.5" y="26.5" width="35" height="48" as="geometry" />
        </mxCell>
        <mxCell id="SdlsA0JNyUcxq9mWWmF1-45" value="" style="swimlane;swimlaneHead=0;swimlaneBody=0;fontStyle=0;connectable=0;strokeColor=inherit;fillColor=none;startSize=0;collapsible=0;recursiveResize=0;expand=0;sketch=1;hachureGap=4;jiggle=2;curveFitting=1;fontFamily=Architects Daughter;fontSource=https%3A%2F%2Ffonts.googleapis.com%2Fcss%3Ffamily%3DArchitects%2BDaughter;" vertex="1" parent="SdlsA0JNyUcxq9mWWmF1-43">
          <mxGeometry x="63" width="239" height="100" as="geometry">
            <mxRectangle width="239" height="100" as="alternateBounds" />
          </mxGeometry>
        </mxCell>
        <mxCell id="SdlsA0JNyUcxq9mWWmF1-182" value="Pedro Alberto" style="text;html=1;align=center;verticalAlign=middle;resizable=0;points=[];autosize=1;strokeColor=none;fillColor=none;fontSize=20;fontFamily=Architects Daughter;fontSource=https%3A%2F%2Ffonts.googleapis.com%2Fcss%3Ffamily%3DArchitects%2BDaughter;" vertex="1" parent="SdlsA0JNyUcxq9mWWmF1-45">
          <mxGeometry x="44.5" y="32.5" width="151" height="36" as="geometry" />
        </mxCell>
        <mxCell id="SdlsA0JNyUcxq9mWWmF1-46" value="" style="swimlane;swimlaneHead=0;swimlaneBody=0;fontStyle=0;connectable=0;strokeColor=inherit;fillColor=none;startSize=0;collapsible=0;recursiveResize=0;expand=0;sketch=1;hachureGap=4;jiggle=2;curveFitting=1;fontFamily=Architects Daughter;fontSource=https%3A%2F%2Ffonts.googleapis.com%2Fcss%3Ffamily%3DArchitects%2BDaughter;" vertex="1" parent="SdlsA0JNyUcxq9mWWmF1-43">
          <mxGeometry x="302" width="110" height="100" as="geometry">
            <mxRectangle width="110" height="100" as="alternateBounds" />
          </mxGeometry>
        </mxCell>
        <mxCell id="SdlsA0JNyUcxq9mWWmF1-185" value="53" style="text;html=1;align=center;verticalAlign=middle;resizable=0;points=[];autosize=1;strokeColor=none;fillColor=none;fontSize=20;fontFamily=Architects Daughter;fontSource=https%3A%2F%2Ffonts.googleapis.com%2Fcss%3Ffamily%3DArchitects%2BDaughter;" vertex="1" parent="SdlsA0JNyUcxq9mWWmF1-46">
          <mxGeometry x="41.5" y="32.5" width="42" height="36" as="geometry" />
        </mxCell>
        <mxCell id="SdlsA0JNyUcxq9mWWmF1-47" value="" style="swimlane;swimlaneHead=0;swimlaneBody=0;fontStyle=0;connectable=0;strokeColor=inherit;fillColor=none;startSize=0;collapsible=0;recursiveResize=0;expand=0;sketch=1;hachureGap=4;jiggle=2;curveFitting=1;fontFamily=Architects Daughter;fontSource=https%3A%2F%2Ffonts.googleapis.com%2Fcss%3Ffamily%3DArchitects%2BDaughter;" vertex="1" parent="SdlsA0JNyUcxq9mWWmF1-43">
          <mxGeometry x="412" width="127" height="100" as="geometry">
            <mxRectangle width="127" height="100" as="alternateBounds" />
          </mxGeometry>
        </mxCell>
        <mxCell id="SdlsA0JNyUcxq9mWWmF1-188" value="1.98" style="text;html=1;align=center;verticalAlign=middle;resizable=0;points=[];autosize=1;strokeColor=none;fillColor=none;fontSize=20;fontFamily=Architects Daughter;fontSource=https%3A%2F%2Ffonts.googleapis.com%2Fcss%3Ffamily%3DArchitects%2BDaughter;" vertex="1" parent="SdlsA0JNyUcxq9mWWmF1-47">
          <mxGeometry x="40" y="32.5" width="48" height="36" as="geometry" />
        </mxCell>
        <mxCell id="SdlsA0JNyUcxq9mWWmF1-48" value="" style="swimlane;swimlaneHead=0;swimlaneBody=0;fontStyle=0;connectable=0;strokeColor=inherit;fillColor=none;startSize=0;collapsible=0;recursiveResize=0;expand=0;sketch=1;hachureGap=4;jiggle=2;curveFitting=1;fontFamily=Architects Daughter;fontSource=https%3A%2F%2Ffonts.googleapis.com%2Fcss%3Ffamily%3DArchitects%2BDaughter;" vertex="1" parent="SdlsA0JNyUcxq9mWWmF1-43">
          <mxGeometry x="539" width="157" height="100" as="geometry">
            <mxRectangle width="157" height="100" as="alternateBounds" />
          </mxGeometry>
        </mxCell>
        <mxCell id="SdlsA0JNyUcxq9mWWmF1-191" value="2" style="text;html=1;align=center;verticalAlign=middle;resizable=0;points=[];autosize=1;strokeColor=none;fillColor=none;fontSize=20;fontFamily=Architects Daughter;fontSource=https%3A%2F%2Ffonts.googleapis.com%2Fcss%3Ffamily%3DArchitects%2BDaughter;" vertex="1" parent="SdlsA0JNyUcxq9mWWmF1-48">
          <mxGeometry x="64.5" y="32.5" width="29" height="36" as="geometry" />
        </mxCell>
        <mxCell id="SdlsA0JNyUcxq9mWWmF1-49" value="" style="swimlane;swimlaneHead=0;swimlaneBody=0;fontStyle=0;connectable=0;strokeColor=inherit;fillColor=none;startSize=0;collapsible=0;recursiveResize=0;expand=0;sketch=1;hachureGap=4;jiggle=2;curveFitting=1;fontFamily=Architects Daughter;fontSource=https%3A%2F%2Ffonts.googleapis.com%2Fcss%3Ffamily%3DArchitects%2BDaughter;" vertex="1" parent="SdlsA0JNyUcxq9mWWmF1-43">
          <mxGeometry x="696" width="20" height="100" as="geometry">
            <mxRectangle width="20" height="100" as="alternateBounds" />
          </mxGeometry>
        </mxCell>
        <mxCell id="SdlsA0JNyUcxq9mWWmF1-50" value="" style="shape=tableRow;horizontal=0;swimlaneHead=0;swimlaneBody=0;top=0;left=0;strokeColor=inherit;bottom=0;right=0;dropTarget=0;fontStyle=0;fillColor=none;points=[[0,0.5],[1,0.5]];portConstraint=eastwest;startSize=5;collapsible=0;recursiveResize=0;expand=0;sketch=1;hachureGap=4;jiggle=2;curveFitting=1;fontFamily=Architects Daughter;fontSource=https%3A%2F%2Ffonts.googleapis.com%2Fcss%3Ffamily%3DArchitects%2BDaughter;" vertex="1" parent="SdlsA0JNyUcxq9mWWmF1-35">
          <mxGeometry y="278" width="716" height="81" as="geometry" />
        </mxCell>
        <mxCell id="SdlsA0JNyUcxq9mWWmF1-51" value="" style="swimlane;swimlaneHead=0;swimlaneBody=0;fontStyle=0;connectable=0;strokeColor=inherit;fillColor=none;startSize=0;collapsible=0;recursiveResize=0;expand=0;sketch=1;hachureGap=4;jiggle=2;curveFitting=1;fontFamily=Architects Daughter;fontSource=https%3A%2F%2Ffonts.googleapis.com%2Fcss%3Ffamily%3DArchitects%2BDaughter;" vertex="1" parent="SdlsA0JNyUcxq9mWWmF1-50">
          <mxGeometry x="5" width="58" height="81" as="geometry">
            <mxRectangle width="58" height="81" as="alternateBounds" />
          </mxGeometry>
        </mxCell>
        <mxCell id="SdlsA0JNyUcxq9mWWmF1-180" value="&lt;font style=&quot;font-size: 30px;&quot;&gt;3&lt;/font&gt;" style="text;html=1;align=center;verticalAlign=middle;resizable=0;points=[];autosize=1;strokeColor=none;fillColor=none;fontSize=20;fontFamily=Architects Daughter;fontSource=https%3A%2F%2Ffonts.googleapis.com%2Fcss%3Ffamily%3DArchitects%2BDaughter;" vertex="1" parent="SdlsA0JNyUcxq9mWWmF1-51">
          <mxGeometry x="13" y="17" width="33" height="48" as="geometry" />
        </mxCell>
        <mxCell id="SdlsA0JNyUcxq9mWWmF1-52" value="" style="swimlane;swimlaneHead=0;swimlaneBody=0;fontStyle=0;connectable=0;strokeColor=inherit;fillColor=none;startSize=0;collapsible=0;recursiveResize=0;expand=0;sketch=1;hachureGap=4;jiggle=2;curveFitting=1;fontFamily=Architects Daughter;fontSource=https%3A%2F%2Ffonts.googleapis.com%2Fcss%3Ffamily%3DArchitects%2BDaughter;" vertex="1" parent="SdlsA0JNyUcxq9mWWmF1-50">
          <mxGeometry x="63" width="239" height="81" as="geometry">
            <mxRectangle width="239" height="81" as="alternateBounds" />
          </mxGeometry>
        </mxCell>
        <mxCell id="SdlsA0JNyUcxq9mWWmF1-183" value="Carlos Machado" style="text;html=1;align=center;verticalAlign=middle;resizable=0;points=[];autosize=1;strokeColor=none;fillColor=none;fontSize=20;fontFamily=Architects Daughter;fontSource=https%3A%2F%2Ffonts.googleapis.com%2Fcss%3Ffamily%3DArchitects%2BDaughter;" vertex="1" parent="SdlsA0JNyUcxq9mWWmF1-52">
          <mxGeometry x="36.5" y="23" width="167" height="36" as="geometry" />
        </mxCell>
        <mxCell id="SdlsA0JNyUcxq9mWWmF1-53" value="" style="swimlane;swimlaneHead=0;swimlaneBody=0;fontStyle=0;connectable=0;strokeColor=inherit;fillColor=none;startSize=0;collapsible=0;recursiveResize=0;expand=0;sketch=1;hachureGap=4;jiggle=2;curveFitting=1;fontFamily=Architects Daughter;fontSource=https%3A%2F%2Ffonts.googleapis.com%2Fcss%3Ffamily%3DArchitects%2BDaughter;" vertex="1" parent="SdlsA0JNyUcxq9mWWmF1-50">
          <mxGeometry x="302" width="110" height="81" as="geometry">
            <mxRectangle width="110" height="81" as="alternateBounds" />
          </mxGeometry>
        </mxCell>
        <mxCell id="SdlsA0JNyUcxq9mWWmF1-186" value="38" style="text;html=1;align=center;verticalAlign=middle;resizable=0;points=[];autosize=1;strokeColor=none;fillColor=none;fontSize=20;fontFamily=Architects Daughter;fontSource=https%3A%2F%2Ffonts.googleapis.com%2Fcss%3Ffamily%3DArchitects%2BDaughter;" vertex="1" parent="SdlsA0JNyUcxq9mWWmF1-53">
          <mxGeometry x="35" y="23" width="41" height="36" as="geometry" />
        </mxCell>
        <mxCell id="SdlsA0JNyUcxq9mWWmF1-54" value="" style="swimlane;swimlaneHead=0;swimlaneBody=0;fontStyle=0;connectable=0;strokeColor=inherit;fillColor=none;startSize=0;collapsible=0;recursiveResize=0;expand=0;sketch=1;hachureGap=4;jiggle=2;curveFitting=1;fontFamily=Architects Daughter;fontSource=https%3A%2F%2Ffonts.googleapis.com%2Fcss%3Ffamily%3DArchitects%2BDaughter;" vertex="1" parent="SdlsA0JNyUcxq9mWWmF1-50">
          <mxGeometry x="412" width="127" height="81" as="geometry">
            <mxRectangle width="127" height="81" as="alternateBounds" />
          </mxGeometry>
        </mxCell>
        <mxCell id="SdlsA0JNyUcxq9mWWmF1-189" value="1.68" style="text;html=1;align=center;verticalAlign=middle;resizable=0;points=[];autosize=1;strokeColor=none;fillColor=none;fontSize=20;fontFamily=Architects Daughter;fontSource=https%3A%2F%2Ffonts.googleapis.com%2Fcss%3Ffamily%3DArchitects%2BDaughter;" vertex="1" parent="SdlsA0JNyUcxq9mWWmF1-54">
          <mxGeometry x="39.5" y="23" width="49" height="36" as="geometry" />
        </mxCell>
        <mxCell id="SdlsA0JNyUcxq9mWWmF1-55" value="" style="swimlane;swimlaneHead=0;swimlaneBody=0;fontStyle=0;connectable=0;strokeColor=inherit;fillColor=none;startSize=0;collapsible=0;recursiveResize=0;expand=0;sketch=1;hachureGap=4;jiggle=2;curveFitting=1;fontFamily=Architects Daughter;fontSource=https%3A%2F%2Ffonts.googleapis.com%2Fcss%3Ffamily%3DArchitects%2BDaughter;" vertex="1" parent="SdlsA0JNyUcxq9mWWmF1-50">
          <mxGeometry x="539" width="157" height="81" as="geometry">
            <mxRectangle width="157" height="81" as="alternateBounds" />
          </mxGeometry>
        </mxCell>
        <mxCell id="SdlsA0JNyUcxq9mWWmF1-192" value="3" style="text;html=1;align=center;verticalAlign=middle;resizable=0;points=[];autosize=1;strokeColor=none;fillColor=none;fontSize=20;fontFamily=Architects Daughter;fontSource=https%3A%2F%2Ffonts.googleapis.com%2Fcss%3Ffamily%3DArchitects%2BDaughter;" vertex="1" parent="SdlsA0JNyUcxq9mWWmF1-55">
          <mxGeometry x="65.5" y="23" width="28" height="36" as="geometry" />
        </mxCell>
        <mxCell id="SdlsA0JNyUcxq9mWWmF1-56" value="" style="swimlane;swimlaneHead=0;swimlaneBody=0;fontStyle=0;connectable=0;strokeColor=inherit;fillColor=none;startSize=0;collapsible=0;recursiveResize=0;expand=0;sketch=1;hachureGap=4;jiggle=2;curveFitting=1;fontFamily=Architects Daughter;fontSource=https%3A%2F%2Ffonts.googleapis.com%2Fcss%3Ffamily%3DArchitects%2BDaughter;" vertex="1" parent="SdlsA0JNyUcxq9mWWmF1-50">
          <mxGeometry x="696" width="20" height="81" as="geometry">
            <mxRectangle width="20" height="81" as="alternateBounds" />
          </mxGeometry>
        </mxCell>
        <mxCell id="SdlsA0JNyUcxq9mWWmF1-91" value="Endereco" style="shape=table;childLayout=tableLayout;startSize=49;collapsible=0;recursiveResize=0;expand=0;sketch=1;hachureGap=4;jiggle=2;curveFitting=1;fontFamily=Architects Daughter;fontSource=https%3A%2F%2Ffonts.googleapis.com%2Fcss%3Ffamily%3DArchitects%2BDaughter;fontSize=26;" vertex="1" parent="1">
          <mxGeometry x="-1298.94" y="2031" width="2521.8823529411766" height="388.98" as="geometry" />
        </mxCell>
        <mxCell id="SdlsA0JNyUcxq9mWWmF1-92" value="" style="shape=tableRow;horizontal=0;swimlaneHead=0;swimlaneBody=0;top=0;left=0;strokeColor=inherit;bottom=0;right=0;dropTarget=0;fontStyle=0;fillColor=none;points=[[0,0.5],[1,0.5]];portConstraint=eastwest;startSize=0;collapsible=0;recursiveResize=0;expand=0;sketch=1;hachureGap=4;jiggle=2;curveFitting=1;fontFamily=Architects Daughter;fontSource=https%3A%2F%2Ffonts.googleapis.com%2Fcss%3Ffamily%3DArchitects%2BDaughter;" vertex="1" parent="SdlsA0JNyUcxq9mWWmF1-91">
          <mxGeometry y="49" width="2521.8823529411766" height="141" as="geometry" />
        </mxCell>
        <mxCell id="SdlsA0JNyUcxq9mWWmF1-93" value="id" style="swimlane;swimlaneHead=0;swimlaneBody=0;fontStyle=0;strokeColor=inherit;connectable=0;fillColor=none;startSize=47;collapsible=0;recursiveResize=0;expand=0;sketch=1;hachureGap=4;jiggle=2;curveFitting=1;fontFamily=Architects Daughter;fontSource=https%3A%2F%2Ffonts.googleapis.com%2Fcss%3Ffamily%3DArchitects%2BDaughter;fontSize=30;" vertex="1" parent="SdlsA0JNyUcxq9mWWmF1-92">
          <mxGeometry width="73" height="141" as="geometry">
            <mxRectangle width="73" height="141" as="alternateBounds" />
          </mxGeometry>
        </mxCell>
        <mxCell id="SdlsA0JNyUcxq9mWWmF1-224" value="1" style="text;html=1;align=center;verticalAlign=middle;resizable=0;points=[];autosize=1;strokeColor=none;fillColor=none;fontSize=45;fontFamily=Architects Daughter;fontSource=https%3A%2F%2Ffonts.googleapis.com%2Fcss%3Ffamily%3DArchitects%2BDaughter;" vertex="1" parent="SdlsA0JNyUcxq9mWWmF1-93">
          <mxGeometry x="25" y="65.51999999999998" width="24" height="66" as="geometry" />
        </mxCell>
        <mxCell id="SdlsA0JNyUcxq9mWWmF1-94" value="cep" style="swimlane;swimlaneHead=0;swimlaneBody=0;fontStyle=0;strokeColor=inherit;connectable=0;fillColor=none;startSize=47;collapsible=0;recursiveResize=0;expand=0;sketch=1;hachureGap=4;jiggle=2;curveFitting=1;fontFamily=Architects Daughter;fontSource=https%3A%2F%2Ffonts.googleapis.com%2Fcss%3Ffamily%3DArchitects%2BDaughter;fontSize=30;" vertex="1" parent="SdlsA0JNyUcxq9mWWmF1-92">
          <mxGeometry x="73" width="304" height="141" as="geometry">
            <mxRectangle width="304" height="141" as="alternateBounds" />
          </mxGeometry>
        </mxCell>
        <mxCell id="SdlsA0JNyUcxq9mWWmF1-197" value="85940000" style="text;html=1;align=center;verticalAlign=middle;resizable=0;points=[];autosize=1;strokeColor=none;fillColor=none;fontSize=45;fontFamily=Architects Daughter;fontSource=https%3A%2F%2Ffonts.googleapis.com%2Fcss%3Ffamily%3DArchitects%2BDaughter;" vertex="1" parent="SdlsA0JNyUcxq9mWWmF1-94">
          <mxGeometry x="27.5" y="65.51999999999998" width="249" height="66" as="geometry" />
        </mxCell>
        <mxCell id="SdlsA0JNyUcxq9mWWmF1-95" value="pais" style="swimlane;swimlaneHead=0;swimlaneBody=0;fontStyle=0;strokeColor=inherit;connectable=0;fillColor=none;startSize=47;collapsible=0;recursiveResize=0;expand=0;sketch=1;hachureGap=4;jiggle=2;curveFitting=1;fontFamily=Architects Daughter;fontSource=https%3A%2F%2Ffonts.googleapis.com%2Fcss%3Ffamily%3DArchitects%2BDaughter;fontSize=30;" vertex="1" parent="SdlsA0JNyUcxq9mWWmF1-92">
          <mxGeometry x="377" width="243" height="141" as="geometry">
            <mxRectangle width="243" height="141" as="alternateBounds" />
          </mxGeometry>
        </mxCell>
        <mxCell id="SdlsA0JNyUcxq9mWWmF1-201" value="Brasil" style="text;html=1;align=center;verticalAlign=middle;resizable=0;points=[];autosize=1;strokeColor=none;fillColor=none;fontSize=45;fontFamily=Architects Daughter;fontSource=https%3A%2F%2Ffonts.googleapis.com%2Fcss%3Ffamily%3DArchitects%2BDaughter;" vertex="1" parent="SdlsA0JNyUcxq9mWWmF1-95">
          <mxGeometry x="54.5" y="62.51999999999998" width="134" height="66" as="geometry" />
        </mxCell>
        <mxCell id="SdlsA0JNyUcxq9mWWmF1-96" value="estado" style="swimlane;swimlaneHead=0;swimlaneBody=0;fontStyle=0;strokeColor=inherit;connectable=0;fillColor=none;startSize=47;collapsible=0;recursiveResize=0;expand=0;sketch=1;hachureGap=4;jiggle=2;curveFitting=1;fontFamily=Architects Daughter;fontSource=https%3A%2F%2Ffonts.googleapis.com%2Fcss%3Ffamily%3DArchitects%2BDaughter;fontSize=30;" vertex="1" parent="SdlsA0JNyUcxq9mWWmF1-92">
          <mxGeometry x="620" width="251" height="141" as="geometry">
            <mxRectangle width="251" height="141" as="alternateBounds" />
          </mxGeometry>
        </mxCell>
        <mxCell id="SdlsA0JNyUcxq9mWWmF1-204" value="Paraná" style="text;html=1;align=center;verticalAlign=middle;resizable=0;points=[];autosize=1;strokeColor=none;fillColor=none;fontSize=35;fontFamily=Architects Daughter;fontSource=https%3A%2F%2Ffonts.googleapis.com%2Fcss%3Ffamily%3DArchitects%2BDaughter;" vertex="1" parent="SdlsA0JNyUcxq9mWWmF1-96">
          <mxGeometry x="60.5" y="71.51999999999998" width="131" height="54" as="geometry" />
        </mxCell>
        <mxCell id="SdlsA0JNyUcxq9mWWmF1-97" value="cidade" style="swimlane;swimlaneHead=0;swimlaneBody=0;fontStyle=0;strokeColor=inherit;connectable=0;fillColor=none;startSize=47;collapsible=0;recursiveResize=0;expand=0;sketch=1;hachureGap=4;jiggle=2;curveFitting=1;fontFamily=Architects Daughter;fontSource=https%3A%2F%2Ffonts.googleapis.com%2Fcss%3Ffamily%3DArchitects%2BDaughter;fontSize=30;" vertex="1" parent="SdlsA0JNyUcxq9mWWmF1-92">
          <mxGeometry x="871" width="262" height="141" as="geometry">
            <mxRectangle width="262" height="141" as="alternateBounds" />
          </mxGeometry>
        </mxCell>
        <mxCell id="SdlsA0JNyUcxq9mWWmF1-207" value="Quatro Pontes" style="text;html=1;align=center;verticalAlign=middle;resizable=0;points=[];autosize=1;strokeColor=none;fillColor=none;fontSize=35;fontFamily=Architects Daughter;fontSource=https%3A%2F%2Ffonts.googleapis.com%2Fcss%3Ffamily%3DArchitects%2BDaughter;" vertex="1" parent="SdlsA0JNyUcxq9mWWmF1-97">
          <mxGeometry x="3.5" y="68.51999999999998" width="256" height="54" as="geometry" />
        </mxCell>
        <mxCell id="SdlsA0JNyUcxq9mWWmF1-98" value="bairro" style="swimlane;swimlaneHead=0;swimlaneBody=0;fontStyle=0;strokeColor=inherit;connectable=0;fillColor=none;startSize=47;collapsible=0;recursiveResize=0;expand=0;sketch=1;hachureGap=4;jiggle=2;curveFitting=1;fontFamily=Architects Daughter;fontSource=https%3A%2F%2Ffonts.googleapis.com%2Fcss%3Ffamily%3DArchitects%2BDaughter;fontSize=30;" vertex="1" parent="SdlsA0JNyUcxq9mWWmF1-92">
          <mxGeometry x="1133" width="297" height="141" as="geometry">
            <mxRectangle width="297" height="141" as="alternateBounds" />
          </mxGeometry>
        </mxCell>
        <mxCell id="SdlsA0JNyUcxq9mWWmF1-210" value="Centro" style="text;html=1;align=center;verticalAlign=middle;resizable=0;points=[];autosize=1;strokeColor=none;fillColor=none;fontSize=35;fontFamily=Architects Daughter;fontSource=https%3A%2F%2Ffonts.googleapis.com%2Fcss%3Ffamily%3DArchitects%2BDaughter;" vertex="1" parent="SdlsA0JNyUcxq9mWWmF1-98">
          <mxGeometry x="82.5" y="68.51999999999998" width="132" height="54" as="geometry" />
        </mxCell>
        <mxCell id="SdlsA0JNyUcxq9mWWmF1-99" value="rua" style="swimlane;swimlaneHead=0;swimlaneBody=0;fontStyle=0;strokeColor=inherit;connectable=0;fillColor=none;startSize=47;collapsible=0;recursiveResize=0;expand=0;sketch=1;hachureGap=4;jiggle=2;curveFitting=1;fontFamily=Architects Daughter;fontSource=https%3A%2F%2Ffonts.googleapis.com%2Fcss%3Ffamily%3DArchitects%2BDaughter;fontSize=30;" vertex="1" parent="SdlsA0JNyUcxq9mWWmF1-92">
          <mxGeometry x="1430" width="300" height="141" as="geometry">
            <mxRectangle width="300" height="141" as="alternateBounds" />
          </mxGeometry>
        </mxCell>
        <mxCell id="SdlsA0JNyUcxq9mWWmF1-214" value="&lt;span style=&quot;color: rgba(0, 0, 0, 0); font-family: monospace; font-size: 0px; text-align: start;&quot;&gt;%3CmxGraphModel%3E%3Croot%3E%3CmxCell%20id%3D%220%22%2F%3E%3CmxCell%20id%3D%221%22%20parent%3D%220%22%2F%3E%3CmxCell%20id%3D%222%22%20value%3D%22Centro%22%20style%3D%22text%3Bhtml%3D1%3Balign%3Dcenter%3BverticalAlign%3Dmiddle%3Bresizable%3D0%3Bpoints%3D%5B%5D%3Bautosize%3D1%3BstrokeColor%3Dnone%3BfillColor%3Dnone%3BfontSize%3D35%3BfontFamily%3DArchitects%20Daughter%3BfontSource%3Dhttps%253A%252F%252Ffonts.googleapis.com%252Fcss%253Ffamily%253DArchitects%252BDaughter%3B%22%20vertex%3D%221%22%20parent%3D%221%22%3E%3CmxGeometry%20x%3D%221853.5%22%20y%3D%221003%22%20width%3D%22132%22%20height%3D%2254%22%20as%3D%22geometry%22%2F%3E%3C%2FmxCell%3E%3C%2Froot%3E%3C%2FmxGraphModel%3E&lt;/span&gt;&lt;span style=&quot;color: rgba(0, 0, 0, 0); font-family: monospace; font-size: 0px; text-align: start;&quot;&gt;%3CmxGraphModel%3E%3Croot%3E%3CmxCell%20id%3D%220%22%2F%3E%3CmxCell%20id%3D%221%22%20parent%3D%220%22%2F%3E%3CmxCell%20id%3D%222%22%20value%3D%22Centro%22%20style%3D%22text%3Bhtml%3D1%3Balign%3Dcenter%3BverticalAlign%3Dmiddle%3Bresizable%3D0%3Bpoints%3D%5B%5D%3Bautosize%3D1%3BstrokeColor%3Dnone%3BfillColor%3Dnone%3BfontSize%3D35%3BfontFamily%3DArchitects%20Daughter%3BfontSource%3Dhttps%253A%252F%252Ffonts.googleapis.com%252Fcss%253Ffamily%253DArchitects%252BDaughter%3B%22%20vertex%3D%221%22%20parent%3D%221%22%3E%3CmxGeometry%20x%3D%221853.5%22%20y%3D%221003%22%20width%3D%22132%22%20height%3D%2254%22%20as%3D%22geometry%22%2F%3E%3C%2FmxCell%3E%3C%2Froot%3E%3C%2FmxGraphModel%3E&lt;/span&gt;" style="text;html=1;align=center;verticalAlign=middle;resizable=0;points=[];autosize=1;strokeColor=none;fillColor=none;fontSize=35;fontFamily=Architects Daughter;fontSource=https%3A%2F%2Ffonts.googleapis.com%2Fcss%3Ffamily%3DArchitects%2BDaughter;" vertex="1" parent="SdlsA0JNyUcxq9mWWmF1-99">
          <mxGeometry x="134" y="65.51999999999998" width="18" height="54" as="geometry" />
        </mxCell>
        <mxCell id="SdlsA0JNyUcxq9mWWmF1-215" value="Guatambu" style="text;html=1;align=center;verticalAlign=middle;resizable=0;points=[];autosize=1;strokeColor=none;fillColor=none;fontSize=35;fontFamily=Architects Daughter;fontSource=https%3A%2F%2Ffonts.googleapis.com%2Fcss%3Ffamily%3DArchitects%2BDaughter;" vertex="1" parent="SdlsA0JNyUcxq9mWWmF1-99">
          <mxGeometry x="63" y="65.51999999999998" width="174" height="54" as="geometry" />
        </mxCell>
        <mxCell id="SdlsA0JNyUcxq9mWWmF1-100" value="numero" style="swimlane;swimlaneHead=0;swimlaneBody=0;fontStyle=0;strokeColor=inherit;connectable=0;fillColor=none;startSize=47;collapsible=0;recursiveResize=0;expand=0;sketch=1;hachureGap=4;jiggle=2;curveFitting=1;fontFamily=Architects Daughter;fontSource=https%3A%2F%2Ffonts.googleapis.com%2Fcss%3Ffamily%3DArchitects%2BDaughter;fontSize=30;" vertex="1" parent="SdlsA0JNyUcxq9mWWmF1-92">
          <mxGeometry x="1730" width="119" height="141" as="geometry">
            <mxRectangle width="119" height="141" as="alternateBounds" />
          </mxGeometry>
        </mxCell>
        <mxCell id="SdlsA0JNyUcxq9mWWmF1-218" value="99" style="text;html=1;align=center;verticalAlign=middle;resizable=0;points=[];autosize=1;strokeColor=none;fillColor=none;fontSize=35;fontFamily=Architects Daughter;fontSource=https%3A%2F%2Ffonts.googleapis.com%2Fcss%3Ffamily%3DArchitects%2BDaughter;" vertex="1" parent="SdlsA0JNyUcxq9mWWmF1-100">
          <mxGeometry x="30.5" y="71.51999999999998" width="58" height="54" as="geometry" />
        </mxCell>
        <mxCell id="SdlsA0JNyUcxq9mWWmF1-101" value="complemento" style="swimlane;swimlaneHead=0;swimlaneBody=0;fontStyle=0;strokeColor=inherit;connectable=0;fillColor=none;startSize=47;collapsible=0;recursiveResize=0;expand=0;sketch=1;hachureGap=4;jiggle=2;curveFitting=1;fontFamily=Architects Daughter;fontSource=https%3A%2F%2Ffonts.googleapis.com%2Fcss%3Ffamily%3DArchitects%2BDaughter;fontSize=30;" vertex="1" parent="SdlsA0JNyUcxq9mWWmF1-92">
          <mxGeometry x="1849" width="653" height="141" as="geometry">
            <mxRectangle width="653" height="141" as="alternateBounds" />
          </mxGeometry>
        </mxCell>
        <mxCell id="SdlsA0JNyUcxq9mWWmF1-221" value="Apartamento, 3º Andar" style="text;html=1;align=center;verticalAlign=middle;resizable=0;points=[];autosize=1;strokeColor=none;fillColor=none;fontSize=35;fontFamily=Architects Daughter;fontSource=https%3A%2F%2Ffonts.googleapis.com%2Fcss%3Ffamily%3DArchitects%2BDaughter;" vertex="1" parent="SdlsA0JNyUcxq9mWWmF1-101">
          <mxGeometry x="135.5" y="68.51999999999998" width="383" height="54" as="geometry" />
        </mxCell>
        <mxCell id="SdlsA0JNyUcxq9mWWmF1-102" value="" style="swimlane;swimlaneHead=0;swimlaneBody=0;fontStyle=0;strokeColor=inherit;connectable=0;fillColor=none;startSize=47;collapsible=0;recursiveResize=0;expand=0;sketch=1;hachureGap=4;jiggle=2;curveFitting=1;fontFamily=Architects Daughter;fontSource=https%3A%2F%2Ffonts.googleapis.com%2Fcss%3Ffamily%3DArchitects%2BDaughter;" vertex="1" parent="SdlsA0JNyUcxq9mWWmF1-92">
          <mxGeometry x="2502" width="20" height="141" as="geometry">
            <mxRectangle width="20" height="141" as="alternateBounds" />
          </mxGeometry>
        </mxCell>
        <mxCell id="SdlsA0JNyUcxq9mWWmF1-103" value="" style="shape=tableRow;horizontal=0;swimlaneHead=0;swimlaneBody=0;top=0;left=0;strokeColor=inherit;bottom=0;right=0;dropTarget=0;fontStyle=0;fillColor=none;points=[[0,0.5],[1,0.5]];portConstraint=eastwest;startSize=0;collapsible=0;recursiveResize=0;expand=0;sketch=1;hachureGap=4;jiggle=2;curveFitting=1;fontFamily=Architects Daughter;fontSource=https%3A%2F%2Ffonts.googleapis.com%2Fcss%3Ffamily%3DArchitects%2BDaughter;" vertex="1" parent="SdlsA0JNyUcxq9mWWmF1-91">
          <mxGeometry y="190" width="2521.8823529411766" height="104" as="geometry" />
        </mxCell>
        <mxCell id="SdlsA0JNyUcxq9mWWmF1-104" value="" style="swimlane;swimlaneHead=0;swimlaneBody=0;fontStyle=0;connectable=0;strokeColor=inherit;fillColor=none;startSize=0;collapsible=0;recursiveResize=0;expand=0;sketch=1;hachureGap=4;jiggle=2;curveFitting=1;fontFamily=Architects Daughter;fontSource=https%3A%2F%2Ffonts.googleapis.com%2Fcss%3Ffamily%3DArchitects%2BDaughter;" vertex="1" parent="SdlsA0JNyUcxq9mWWmF1-103">
          <mxGeometry width="73" height="104" as="geometry">
            <mxRectangle width="73" height="104" as="alternateBounds" />
          </mxGeometry>
        </mxCell>
        <mxCell id="SdlsA0JNyUcxq9mWWmF1-194" value="2" style="text;html=1;align=center;verticalAlign=middle;resizable=0;points=[];autosize=1;strokeColor=none;fillColor=none;fontSize=45;fontFamily=Architects Daughter;fontSource=https%3A%2F%2Ffonts.googleapis.com%2Fcss%3Ffamily%3DArchitects%2BDaughter;" vertex="1" parent="SdlsA0JNyUcxq9mWWmF1-104">
          <mxGeometry x="14.5" y="19" width="44" height="66" as="geometry" />
        </mxCell>
        <mxCell id="SdlsA0JNyUcxq9mWWmF1-105" value="" style="swimlane;swimlaneHead=0;swimlaneBody=0;fontStyle=0;connectable=0;strokeColor=inherit;fillColor=none;startSize=0;collapsible=0;recursiveResize=0;expand=0;sketch=1;hachureGap=4;jiggle=2;curveFitting=1;fontFamily=Architects Daughter;fontSource=https%3A%2F%2Ffonts.googleapis.com%2Fcss%3Ffamily%3DArchitects%2BDaughter;" vertex="1" parent="SdlsA0JNyUcxq9mWWmF1-103">
          <mxGeometry x="73" width="304" height="104" as="geometry">
            <mxRectangle width="304" height="104" as="alternateBounds" />
          </mxGeometry>
        </mxCell>
        <mxCell id="SdlsA0JNyUcxq9mWWmF1-198" value="01153000" style="text;html=1;align=center;verticalAlign=middle;resizable=0;points=[];autosize=1;strokeColor=none;fillColor=none;fontSize=50;fontFamily=Architects Daughter;fontSource=https%3A%2F%2Ffonts.googleapis.com%2Fcss%3Ffamily%3DArchitects%2BDaughter;" vertex="1" parent="SdlsA0JNyUcxq9mWWmF1-105">
          <mxGeometry x="43" y="15.999999999999982" width="218" height="72" as="geometry" />
        </mxCell>
        <mxCell id="SdlsA0JNyUcxq9mWWmF1-106" value="" style="swimlane;swimlaneHead=0;swimlaneBody=0;fontStyle=0;connectable=0;strokeColor=inherit;fillColor=none;startSize=0;collapsible=0;recursiveResize=0;expand=0;sketch=1;hachureGap=4;jiggle=2;curveFitting=1;fontFamily=Architects Daughter;fontSource=https%3A%2F%2Ffonts.googleapis.com%2Fcss%3Ffamily%3DArchitects%2BDaughter;" vertex="1" parent="SdlsA0JNyUcxq9mWWmF1-103">
          <mxGeometry x="377" width="243" height="104" as="geometry">
            <mxRectangle width="243" height="104" as="alternateBounds" />
          </mxGeometry>
        </mxCell>
        <mxCell id="SdlsA0JNyUcxq9mWWmF1-202" value="Brasil" style="text;html=1;align=center;verticalAlign=middle;resizable=0;points=[];autosize=1;strokeColor=none;fillColor=none;fontSize=45;fontFamily=Architects Daughter;fontSource=https%3A%2F%2Ffonts.googleapis.com%2Fcss%3Ffamily%3DArchitects%2BDaughter;" vertex="1" parent="SdlsA0JNyUcxq9mWWmF1-106">
          <mxGeometry x="54.5" y="19" width="134" height="66" as="geometry" />
        </mxCell>
        <mxCell id="SdlsA0JNyUcxq9mWWmF1-107" value="" style="swimlane;swimlaneHead=0;swimlaneBody=0;fontStyle=0;connectable=0;strokeColor=inherit;fillColor=none;startSize=0;collapsible=0;recursiveResize=0;expand=0;sketch=1;hachureGap=4;jiggle=2;curveFitting=1;fontFamily=Architects Daughter;fontSource=https%3A%2F%2Ffonts.googleapis.com%2Fcss%3Ffamily%3DArchitects%2BDaughter;" vertex="1" parent="SdlsA0JNyUcxq9mWWmF1-103">
          <mxGeometry x="620" width="251" height="104" as="geometry">
            <mxRectangle width="251" height="104" as="alternateBounds" />
          </mxGeometry>
        </mxCell>
        <mxCell id="SdlsA0JNyUcxq9mWWmF1-205" value="São Paulo" style="text;html=1;align=center;verticalAlign=middle;resizable=0;points=[];autosize=1;strokeColor=none;fillColor=none;fontSize=35;fontFamily=Architects Daughter;fontSource=https%3A%2F%2Ffonts.googleapis.com%2Fcss%3Ffamily%3DArchitects%2BDaughter;" vertex="1" parent="SdlsA0JNyUcxq9mWWmF1-107">
          <mxGeometry x="38.5" y="25" width="175" height="54" as="geometry" />
        </mxCell>
        <mxCell id="SdlsA0JNyUcxq9mWWmF1-108" value="" style="swimlane;swimlaneHead=0;swimlaneBody=0;fontStyle=0;connectable=0;strokeColor=inherit;fillColor=none;startSize=0;collapsible=0;recursiveResize=0;expand=0;sketch=1;hachureGap=4;jiggle=2;curveFitting=1;fontFamily=Architects Daughter;fontSource=https%3A%2F%2Ffonts.googleapis.com%2Fcss%3Ffamily%3DArchitects%2BDaughter;" vertex="1" parent="SdlsA0JNyUcxq9mWWmF1-103">
          <mxGeometry x="871" width="262" height="104" as="geometry">
            <mxRectangle width="262" height="104" as="alternateBounds" />
          </mxGeometry>
        </mxCell>
        <mxCell id="SdlsA0JNyUcxq9mWWmF1-208" value="São Paulo" style="text;html=1;align=center;verticalAlign=middle;resizable=0;points=[];autosize=1;strokeColor=none;fillColor=none;fontSize=35;fontFamily=Architects Daughter;fontSource=https%3A%2F%2Ffonts.googleapis.com%2Fcss%3Ffamily%3DArchitects%2BDaughter;" vertex="1" parent="SdlsA0JNyUcxq9mWWmF1-108">
          <mxGeometry x="44.5" y="25" width="175" height="54" as="geometry" />
        </mxCell>
        <mxCell id="SdlsA0JNyUcxq9mWWmF1-109" value="" style="swimlane;swimlaneHead=0;swimlaneBody=0;fontStyle=0;connectable=0;strokeColor=inherit;fillColor=none;startSize=0;collapsible=0;recursiveResize=0;expand=0;sketch=1;hachureGap=4;jiggle=2;curveFitting=1;fontFamily=Architects Daughter;fontSource=https%3A%2F%2Ffonts.googleapis.com%2Fcss%3Ffamily%3DArchitects%2BDaughter;" vertex="1" parent="SdlsA0JNyUcxq9mWWmF1-103">
          <mxGeometry x="1133" width="297" height="104" as="geometry">
            <mxRectangle width="297" height="104" as="alternateBounds" />
          </mxGeometry>
        </mxCell>
        <mxCell id="SdlsA0JNyUcxq9mWWmF1-212" value="Barra Funda" style="text;html=1;align=center;verticalAlign=middle;resizable=0;points=[];autosize=1;strokeColor=none;fillColor=none;fontSize=35;fontFamily=Architects Daughter;fontSource=https%3A%2F%2Ffonts.googleapis.com%2Fcss%3Ffamily%3DArchitects%2BDaughter;" vertex="1" parent="SdlsA0JNyUcxq9mWWmF1-109">
          <mxGeometry x="39" y="24.999999999999996" width="226" height="54" as="geometry" />
        </mxCell>
        <mxCell id="SdlsA0JNyUcxq9mWWmF1-110" value="" style="swimlane;swimlaneHead=0;swimlaneBody=0;fontStyle=0;connectable=0;strokeColor=inherit;fillColor=none;startSize=0;collapsible=0;recursiveResize=0;expand=0;sketch=1;hachureGap=4;jiggle=2;curveFitting=1;fontFamily=Architects Daughter;fontSource=https%3A%2F%2Ffonts.googleapis.com%2Fcss%3Ffamily%3DArchitects%2BDaughter;" vertex="1" parent="SdlsA0JNyUcxq9mWWmF1-103">
          <mxGeometry x="1430" width="300" height="104" as="geometry">
            <mxRectangle width="300" height="104" as="alternateBounds" />
          </mxGeometry>
        </mxCell>
        <mxCell id="SdlsA0JNyUcxq9mWWmF1-216" value="Vitorino Carmilo" style="text;align=center;verticalAlign=middle;resizable=0;points=[];autosize=1;strokeColor=none;fillColor=none;fontSize=35;fontFamily=Architects Daughter;fontSource=https%3A%2F%2Ffonts.googleapis.com%2Fcss%3Ffamily%3DArchitects%2BDaughter;" vertex="1" parent="SdlsA0JNyUcxq9mWWmF1-110">
          <mxGeometry x="82" y="25" width="136" height="54" as="geometry" />
        </mxCell>
        <mxCell id="SdlsA0JNyUcxq9mWWmF1-111" value="" style="swimlane;swimlaneHead=0;swimlaneBody=0;fontStyle=0;connectable=0;strokeColor=inherit;fillColor=none;startSize=0;collapsible=0;recursiveResize=0;expand=0;sketch=1;hachureGap=4;jiggle=2;curveFitting=1;fontFamily=Architects Daughter;fontSource=https%3A%2F%2Ffonts.googleapis.com%2Fcss%3Ffamily%3DArchitects%2BDaughter;" vertex="1" parent="SdlsA0JNyUcxq9mWWmF1-103">
          <mxGeometry x="1730" width="119" height="104" as="geometry">
            <mxRectangle width="119" height="104" as="alternateBounds" />
          </mxGeometry>
        </mxCell>
        <mxCell id="SdlsA0JNyUcxq9mWWmF1-219" value="546" style="text;html=1;align=center;verticalAlign=middle;resizable=0;points=[];autosize=1;strokeColor=none;fillColor=none;fontSize=35;fontFamily=Architects Daughter;fontSource=https%3A%2F%2Ffonts.googleapis.com%2Fcss%3Ffamily%3DArchitects%2BDaughter;" vertex="1" parent="SdlsA0JNyUcxq9mWWmF1-111">
          <mxGeometry x="15.5" y="25" width="89" height="54" as="geometry" />
        </mxCell>
        <mxCell id="SdlsA0JNyUcxq9mWWmF1-112" value="" style="swimlane;swimlaneHead=0;swimlaneBody=0;fontStyle=0;connectable=0;strokeColor=inherit;fillColor=none;startSize=0;collapsible=0;recursiveResize=0;expand=0;sketch=1;hachureGap=4;jiggle=2;curveFitting=1;fontFamily=Architects Daughter;fontSource=https%3A%2F%2Ffonts.googleapis.com%2Fcss%3Ffamily%3DArchitects%2BDaughter;" vertex="1" parent="SdlsA0JNyUcxq9mWWmF1-103">
          <mxGeometry x="1849" width="653" height="104" as="geometry">
            <mxRectangle width="653" height="104" as="alternateBounds" />
          </mxGeometry>
        </mxCell>
        <mxCell id="SdlsA0JNyUcxq9mWWmF1-222" value="Trabalho" style="text;html=1;align=center;verticalAlign=middle;resizable=0;points=[];autosize=1;strokeColor=none;fillColor=none;fontSize=35;fontFamily=Architects Daughter;fontSource=https%3A%2F%2Ffonts.googleapis.com%2Fcss%3Ffamily%3DArchitects%2BDaughter;" vertex="1" parent="SdlsA0JNyUcxq9mWWmF1-112">
          <mxGeometry x="248.5" y="22" width="157" height="54" as="geometry" />
        </mxCell>
        <mxCell id="SdlsA0JNyUcxq9mWWmF1-113" value="" style="swimlane;swimlaneHead=0;swimlaneBody=0;fontStyle=0;connectable=0;strokeColor=inherit;fillColor=none;startSize=0;collapsible=0;recursiveResize=0;expand=0;sketch=1;hachureGap=4;jiggle=2;curveFitting=1;fontFamily=Architects Daughter;fontSource=https%3A%2F%2Ffonts.googleapis.com%2Fcss%3Ffamily%3DArchitects%2BDaughter;" vertex="1" parent="SdlsA0JNyUcxq9mWWmF1-103">
          <mxGeometry x="2502" width="20" height="104" as="geometry">
            <mxRectangle width="20" height="104" as="alternateBounds" />
          </mxGeometry>
        </mxCell>
        <mxCell id="SdlsA0JNyUcxq9mWWmF1-114" value="" style="shape=tableRow;horizontal=0;swimlaneHead=0;swimlaneBody=0;top=0;left=0;strokeColor=inherit;bottom=0;right=0;dropTarget=0;fontStyle=0;fillColor=none;points=[[0,0.5],[1,0.5]];portConstraint=eastwest;startSize=0;collapsible=0;recursiveResize=0;expand=0;sketch=1;hachureGap=4;jiggle=2;curveFitting=1;fontFamily=Architects Daughter;fontSource=https%3A%2F%2Ffonts.googleapis.com%2Fcss%3Ffamily%3DArchitects%2BDaughter;" vertex="1" parent="SdlsA0JNyUcxq9mWWmF1-91">
          <mxGeometry y="294" width="2521.8823529411766" height="95" as="geometry" />
        </mxCell>
        <mxCell id="SdlsA0JNyUcxq9mWWmF1-115" value="" style="swimlane;swimlaneHead=0;swimlaneBody=0;fontStyle=0;connectable=0;strokeColor=inherit;fillColor=none;startSize=0;collapsible=0;recursiveResize=0;expand=0;sketch=1;hachureGap=4;jiggle=2;curveFitting=1;fontFamily=Architects Daughter;fontSource=https%3A%2F%2Ffonts.googleapis.com%2Fcss%3Ffamily%3DArchitects%2BDaughter;" vertex="1" parent="SdlsA0JNyUcxq9mWWmF1-114">
          <mxGeometry width="73" height="95" as="geometry">
            <mxRectangle width="73" height="95" as="alternateBounds" />
          </mxGeometry>
        </mxCell>
        <mxCell id="SdlsA0JNyUcxq9mWWmF1-195" value="3" style="text;html=1;align=center;verticalAlign=middle;resizable=0;points=[];autosize=1;strokeColor=none;fillColor=none;fontSize=45;fontFamily=Architects Daughter;fontSource=https%3A%2F%2Ffonts.googleapis.com%2Fcss%3Ffamily%3DArchitects%2BDaughter;" vertex="1" parent="SdlsA0JNyUcxq9mWWmF1-115">
          <mxGeometry x="16.5" y="14.5" width="41" height="66" as="geometry" />
        </mxCell>
        <mxCell id="SdlsA0JNyUcxq9mWWmF1-116" value="" style="swimlane;swimlaneHead=0;swimlaneBody=0;fontStyle=0;connectable=0;strokeColor=inherit;fillColor=none;startSize=0;collapsible=0;recursiveResize=0;expand=0;sketch=1;hachureGap=4;jiggle=2;curveFitting=1;fontFamily=Architects Daughter;fontSource=https%3A%2F%2Ffonts.googleapis.com%2Fcss%3Ffamily%3DArchitects%2BDaughter;" vertex="1" parent="SdlsA0JNyUcxq9mWWmF1-114">
          <mxGeometry x="73" width="304" height="95" as="geometry">
            <mxRectangle width="304" height="95" as="alternateBounds" />
          </mxGeometry>
        </mxCell>
        <mxCell id="SdlsA0JNyUcxq9mWWmF1-199" value="91755010" style="text;html=1;align=center;verticalAlign=middle;resizable=0;points=[];autosize=1;strokeColor=none;fillColor=none;fontSize=50;fontFamily=Architects Daughter;fontSource=https%3A%2F%2Ffonts.googleapis.com%2Fcss%3Ffamily%3DArchitects%2BDaughter;" vertex="1" parent="SdlsA0JNyUcxq9mWWmF1-116">
          <mxGeometry x="41" y="11.5" width="224" height="72" as="geometry" />
        </mxCell>
        <mxCell id="SdlsA0JNyUcxq9mWWmF1-117" value="" style="swimlane;swimlaneHead=0;swimlaneBody=0;fontStyle=0;connectable=0;strokeColor=inherit;fillColor=none;startSize=0;collapsible=0;recursiveResize=0;expand=0;sketch=1;hachureGap=4;jiggle=2;curveFitting=1;fontFamily=Architects Daughter;fontSource=https%3A%2F%2Ffonts.googleapis.com%2Fcss%3Ffamily%3DArchitects%2BDaughter;" vertex="1" parent="SdlsA0JNyUcxq9mWWmF1-114">
          <mxGeometry x="377" width="243" height="95" as="geometry">
            <mxRectangle width="243" height="95" as="alternateBounds" />
          </mxGeometry>
        </mxCell>
        <mxCell id="SdlsA0JNyUcxq9mWWmF1-203" value="Brasil" style="text;html=1;align=center;verticalAlign=middle;resizable=0;points=[];autosize=1;strokeColor=none;fillColor=none;fontSize=45;fontFamily=Architects Daughter;fontSource=https%3A%2F%2Ffonts.googleapis.com%2Fcss%3Ffamily%3DArchitects%2BDaughter;" vertex="1" parent="SdlsA0JNyUcxq9mWWmF1-117">
          <mxGeometry x="54.5" y="14.5" width="134" height="66" as="geometry" />
        </mxCell>
        <mxCell id="SdlsA0JNyUcxq9mWWmF1-118" value="" style="swimlane;swimlaneHead=0;swimlaneBody=0;fontStyle=0;connectable=0;strokeColor=inherit;fillColor=none;startSize=0;collapsible=0;recursiveResize=0;expand=0;sketch=1;hachureGap=4;jiggle=2;curveFitting=1;fontFamily=Architects Daughter;fontSource=https%3A%2F%2Ffonts.googleapis.com%2Fcss%3Ffamily%3DArchitects%2BDaughter;" vertex="1" parent="SdlsA0JNyUcxq9mWWmF1-114">
          <mxGeometry x="620" width="251" height="95" as="geometry">
            <mxRectangle width="251" height="95" as="alternateBounds" />
          </mxGeometry>
        </mxCell>
        <mxCell id="SdlsA0JNyUcxq9mWWmF1-206" value="Rio Grande do Sul" style="text;html=1;align=center;verticalAlign=middle;resizable=0;points=[];autosize=1;strokeColor=none;fillColor=none;fontSize=28;fontFamily=Architects Daughter;fontSource=https%3A%2F%2Ffonts.googleapis.com%2Fcss%3Ffamily%3DArchitects%2BDaughter;" vertex="1" parent="SdlsA0JNyUcxq9mWWmF1-118">
          <mxGeometry x="2.5" y="27.5" width="251" height="46" as="geometry" />
        </mxCell>
        <mxCell id="SdlsA0JNyUcxq9mWWmF1-119" value="" style="swimlane;swimlaneHead=0;swimlaneBody=0;fontStyle=0;connectable=0;strokeColor=inherit;fillColor=none;startSize=0;collapsible=0;recursiveResize=0;expand=0;sketch=1;hachureGap=4;jiggle=2;curveFitting=1;fontFamily=Architects Daughter;fontSource=https%3A%2F%2Ffonts.googleapis.com%2Fcss%3Ffamily%3DArchitects%2BDaughter;" vertex="1" parent="SdlsA0JNyUcxq9mWWmF1-114">
          <mxGeometry x="871" width="262" height="95" as="geometry">
            <mxRectangle width="262" height="95" as="alternateBounds" />
          </mxGeometry>
        </mxCell>
        <mxCell id="SdlsA0JNyUcxq9mWWmF1-209" value="Porto Alegre" style="text;html=1;align=center;verticalAlign=middle;resizable=0;points=[];autosize=1;strokeColor=none;fillColor=none;fontSize=35;fontFamily=Architects Daughter;fontSource=https%3A%2F%2Ffonts.googleapis.com%2Fcss%3Ffamily%3DArchitects%2BDaughter;" vertex="1" parent="SdlsA0JNyUcxq9mWWmF1-119">
          <mxGeometry x="17.5" y="20.5" width="230" height="54" as="geometry" />
        </mxCell>
        <mxCell id="SdlsA0JNyUcxq9mWWmF1-120" value="" style="swimlane;swimlaneHead=0;swimlaneBody=0;fontStyle=0;connectable=0;strokeColor=inherit;fillColor=none;startSize=0;collapsible=0;recursiveResize=0;expand=0;sketch=1;hachureGap=4;jiggle=2;curveFitting=1;fontFamily=Architects Daughter;fontSource=https%3A%2F%2Ffonts.googleapis.com%2Fcss%3Ffamily%3DArchitects%2BDaughter;" vertex="1" parent="SdlsA0JNyUcxq9mWWmF1-114">
          <mxGeometry x="1133" width="297" height="95" as="geometry">
            <mxRectangle width="297" height="95" as="alternateBounds" />
          </mxGeometry>
        </mxCell>
        <mxCell id="SdlsA0JNyUcxq9mWWmF1-213" value="Hípica" style="text;html=1;align=center;verticalAlign=middle;resizable=0;points=[];autosize=1;strokeColor=none;fillColor=none;fontSize=35;fontFamily=Architects Daughter;fontSource=https%3A%2F%2Ffonts.googleapis.com%2Fcss%3Ffamily%3DArchitects%2BDaughter;" vertex="1" parent="SdlsA0JNyUcxq9mWWmF1-120">
          <mxGeometry x="94.5" y="18.019999999999982" width="109" height="54" as="geometry" />
        </mxCell>
        <mxCell id="SdlsA0JNyUcxq9mWWmF1-121" value="" style="swimlane;swimlaneHead=0;swimlaneBody=0;fontStyle=0;connectable=0;strokeColor=inherit;fillColor=none;startSize=0;collapsible=0;recursiveResize=0;expand=0;sketch=1;hachureGap=4;jiggle=2;curveFitting=1;fontFamily=Architects Daughter;fontSource=https%3A%2F%2Ffonts.googleapis.com%2Fcss%3Ffamily%3DArchitects%2BDaughter;" vertex="1" parent="SdlsA0JNyUcxq9mWWmF1-114">
          <mxGeometry x="1430" width="300" height="95" as="geometry">
            <mxRectangle width="300" height="95" as="alternateBounds" />
          </mxGeometry>
        </mxCell>
        <mxCell id="SdlsA0JNyUcxq9mWWmF1-217" value=" Doutor Hermes&#xa; Pacheco" style="text;align=center;verticalAlign=middle;resizable=0;points=[];autosize=1;strokeColor=none;fillColor=none;fontSize=35;fontFamily=Architects Daughter;fontSource=https%3A%2F%2Ffonts.googleapis.com%2Fcss%3Ffamily%3DArchitects%2BDaughter;" vertex="1" parent="SdlsA0JNyUcxq9mWWmF1-121">
          <mxGeometry x="9" y="2.5" width="283" height="96" as="geometry" />
        </mxCell>
        <mxCell id="SdlsA0JNyUcxq9mWWmF1-122" value="" style="swimlane;swimlaneHead=0;swimlaneBody=0;fontStyle=0;connectable=0;strokeColor=inherit;fillColor=none;startSize=0;collapsible=0;recursiveResize=0;expand=0;sketch=1;hachureGap=4;jiggle=2;curveFitting=1;fontFamily=Architects Daughter;fontSource=https%3A%2F%2Ffonts.googleapis.com%2Fcss%3Ffamily%3DArchitects%2BDaughter;" vertex="1" parent="SdlsA0JNyUcxq9mWWmF1-114">
          <mxGeometry x="1730" width="119" height="95" as="geometry">
            <mxRectangle width="119" height="95" as="alternateBounds" />
          </mxGeometry>
        </mxCell>
        <mxCell id="SdlsA0JNyUcxq9mWWmF1-220" value="3321" style="text;html=1;align=center;verticalAlign=middle;resizable=0;points=[];autosize=1;strokeColor=none;fillColor=none;fontSize=35;fontFamily=Architects Daughter;fontSource=https%3A%2F%2Ffonts.googleapis.com%2Fcss%3Ffamily%3DArchitects%2BDaughter;" vertex="1" parent="SdlsA0JNyUcxq9mWWmF1-122">
          <mxGeometry x="21.5" y="23.5" width="78" height="54" as="geometry" />
        </mxCell>
        <mxCell id="SdlsA0JNyUcxq9mWWmF1-123" value="" style="swimlane;swimlaneHead=0;swimlaneBody=0;fontStyle=0;connectable=0;strokeColor=inherit;fillColor=none;startSize=0;collapsible=0;recursiveResize=0;expand=0;sketch=1;hachureGap=4;jiggle=2;curveFitting=1;fontFamily=Architects Daughter;fontSource=https%3A%2F%2Ffonts.googleapis.com%2Fcss%3Ffamily%3DArchitects%2BDaughter;" vertex="1" parent="SdlsA0JNyUcxq9mWWmF1-114">
          <mxGeometry x="1849" width="653" height="95" as="geometry">
            <mxRectangle width="653" height="95" as="alternateBounds" />
          </mxGeometry>
        </mxCell>
        <mxCell id="SdlsA0JNyUcxq9mWWmF1-223" value="Casa" style="text;html=1;align=center;verticalAlign=middle;resizable=0;points=[];autosize=1;strokeColor=none;fillColor=none;fontSize=35;fontFamily=Architects Daughter;fontSource=https%3A%2F%2Ffonts.googleapis.com%2Fcss%3Ffamily%3DArchitects%2BDaughter;" vertex="1" parent="SdlsA0JNyUcxq9mWWmF1-123">
          <mxGeometry x="279" y="23.5" width="96" height="54" as="geometry" />
        </mxCell>
        <mxCell id="SdlsA0JNyUcxq9mWWmF1-124" value="" style="swimlane;swimlaneHead=0;swimlaneBody=0;fontStyle=0;connectable=0;strokeColor=inherit;fillColor=none;startSize=0;collapsible=0;recursiveResize=0;expand=0;sketch=1;hachureGap=4;jiggle=2;curveFitting=1;fontFamily=Architects Daughter;fontSource=https%3A%2F%2Ffonts.googleapis.com%2Fcss%3Ffamily%3DArchitects%2BDaughter;" vertex="1" parent="SdlsA0JNyUcxq9mWWmF1-114">
          <mxGeometry x="2502" width="20" height="95" as="geometry">
            <mxRectangle width="20" height="95" as="alternateBounds" />
          </mxGeometry>
        </mxCell>
        <mxCell id="SdlsA0JNyUcxq9mWWmF1-125" value="Pessoa" style="shape=table;startSize=30;container=1;collapsible=1;childLayout=tableLayout;fixedRows=1;rowLines=0;fontStyle=1;align=center;resizeLast=1;html=1;fontFamily=Architects Daughter;fontSource=https%3A%2F%2Ffonts.googleapis.com%2Fcss%3Ffamily%3DArchitects%2BDaughter;sketch=1;curveFitting=1;jiggle=2;" vertex="1" parent="1">
          <mxGeometry x="282" y="334" width="180" height="182" as="geometry">
            <mxRectangle x="-132" y="-204" width="74" height="30" as="alternateBounds" />
          </mxGeometry>
        </mxCell>
        <mxCell id="SdlsA0JNyUcxq9mWWmF1-126" value="" style="shape=tableRow;horizontal=0;startSize=0;swimlaneHead=0;swimlaneBody=0;fillColor=none;collapsible=0;dropTarget=0;points=[[0,0.5],[1,0.5]];portConstraint=eastwest;top=0;left=0;right=0;bottom=1;fontFamily=Architects Daughter;fontSource=https%3A%2F%2Ffonts.googleapis.com%2Fcss%3Ffamily%3DArchitects%2BDaughter;sketch=1;curveFitting=1;jiggle=2;" vertex="1" parent="SdlsA0JNyUcxq9mWWmF1-125">
          <mxGeometry y="30" width="180" height="30" as="geometry" />
        </mxCell>
        <mxCell id="SdlsA0JNyUcxq9mWWmF1-127" value="PK" style="shape=partialRectangle;connectable=0;fillColor=none;top=0;left=0;bottom=0;right=0;fontStyle=1;overflow=hidden;whiteSpace=wrap;html=1;fontFamily=Architects Daughter;fontSource=https%3A%2F%2Ffonts.googleapis.com%2Fcss%3Ffamily%3DArchitects%2BDaughter;sketch=1;curveFitting=1;jiggle=2;" vertex="1" parent="SdlsA0JNyUcxq9mWWmF1-126">
          <mxGeometry width="30" height="30" as="geometry">
            <mxRectangle width="30" height="30" as="alternateBounds" />
          </mxGeometry>
        </mxCell>
        <mxCell id="SdlsA0JNyUcxq9mWWmF1-128" value="ID" style="shape=partialRectangle;connectable=0;fillColor=none;top=0;left=0;bottom=0;right=0;align=left;spacingLeft=6;fontStyle=5;overflow=hidden;whiteSpace=wrap;html=1;fontFamily=Architects Daughter;fontSource=https%3A%2F%2Ffonts.googleapis.com%2Fcss%3Ffamily%3DArchitects%2BDaughter;sketch=1;curveFitting=1;jiggle=2;" vertex="1" parent="SdlsA0JNyUcxq9mWWmF1-126">
          <mxGeometry x="30" width="150" height="30" as="geometry">
            <mxRectangle width="150" height="30" as="alternateBounds" />
          </mxGeometry>
        </mxCell>
        <mxCell id="SdlsA0JNyUcxq9mWWmF1-129" value="" style="shape=tableRow;horizontal=0;startSize=0;swimlaneHead=0;swimlaneBody=0;fillColor=none;collapsible=0;dropTarget=0;points=[[0,0.5],[1,0.5]];portConstraint=eastwest;top=0;left=0;right=0;bottom=0;fontFamily=Architects Daughter;fontSource=https%3A%2F%2Ffonts.googleapis.com%2Fcss%3Ffamily%3DArchitects%2BDaughter;sketch=1;curveFitting=1;jiggle=2;" vertex="1" parent="SdlsA0JNyUcxq9mWWmF1-125">
          <mxGeometry y="60" width="180" height="30" as="geometry" />
        </mxCell>
        <mxCell id="SdlsA0JNyUcxq9mWWmF1-130" value="" style="shape=partialRectangle;connectable=0;fillColor=none;top=0;left=0;bottom=0;right=0;editable=1;overflow=hidden;whiteSpace=wrap;html=1;fontFamily=Architects Daughter;fontSource=https%3A%2F%2Ffonts.googleapis.com%2Fcss%3Ffamily%3DArchitects%2BDaughter;sketch=1;curveFitting=1;jiggle=2;" vertex="1" parent="SdlsA0JNyUcxq9mWWmF1-129">
          <mxGeometry width="30" height="30" as="geometry">
            <mxRectangle width="30" height="30" as="alternateBounds" />
          </mxGeometry>
        </mxCell>
        <mxCell id="SdlsA0JNyUcxq9mWWmF1-131" value="nome" style="shape=partialRectangle;connectable=0;fillColor=none;top=0;left=0;bottom=0;right=0;align=left;spacingLeft=6;overflow=hidden;whiteSpace=wrap;html=1;fontFamily=Architects Daughter;fontSource=https%3A%2F%2Ffonts.googleapis.com%2Fcss%3Ffamily%3DArchitects%2BDaughter;sketch=1;curveFitting=1;jiggle=2;" vertex="1" parent="SdlsA0JNyUcxq9mWWmF1-129">
          <mxGeometry x="30" width="150" height="30" as="geometry">
            <mxRectangle width="150" height="30" as="alternateBounds" />
          </mxGeometry>
        </mxCell>
        <mxCell id="SdlsA0JNyUcxq9mWWmF1-132" value="" style="shape=tableRow;horizontal=0;startSize=0;swimlaneHead=0;swimlaneBody=0;fillColor=none;collapsible=0;dropTarget=0;points=[[0,0.5],[1,0.5]];portConstraint=eastwest;top=0;left=0;right=0;bottom=0;fontFamily=Architects Daughter;fontSource=https%3A%2F%2Ffonts.googleapis.com%2Fcss%3Ffamily%3DArchitects%2BDaughter;sketch=1;curveFitting=1;jiggle=2;" vertex="1" parent="SdlsA0JNyUcxq9mWWmF1-125">
          <mxGeometry y="90" width="180" height="30" as="geometry" />
        </mxCell>
        <mxCell id="SdlsA0JNyUcxq9mWWmF1-133" value="" style="shape=partialRectangle;connectable=0;fillColor=none;top=0;left=0;bottom=0;right=0;editable=1;overflow=hidden;whiteSpace=wrap;html=1;fontFamily=Architects Daughter;fontSource=https%3A%2F%2Ffonts.googleapis.com%2Fcss%3Ffamily%3DArchitects%2BDaughter;sketch=1;curveFitting=1;jiggle=2;" vertex="1" parent="SdlsA0JNyUcxq9mWWmF1-132">
          <mxGeometry width="30" height="30" as="geometry">
            <mxRectangle width="30" height="30" as="alternateBounds" />
          </mxGeometry>
        </mxCell>
        <mxCell id="SdlsA0JNyUcxq9mWWmF1-134" value="idade" style="shape=partialRectangle;connectable=0;fillColor=none;top=0;left=0;bottom=0;right=0;align=left;spacingLeft=6;overflow=hidden;whiteSpace=wrap;html=1;fontFamily=Architects Daughter;fontSource=https%3A%2F%2Ffonts.googleapis.com%2Fcss%3Ffamily%3DArchitects%2BDaughter;sketch=1;curveFitting=1;jiggle=2;" vertex="1" parent="SdlsA0JNyUcxq9mWWmF1-132">
          <mxGeometry x="30" width="150" height="30" as="geometry">
            <mxRectangle width="150" height="30" as="alternateBounds" />
          </mxGeometry>
        </mxCell>
        <mxCell id="SdlsA0JNyUcxq9mWWmF1-135" value="" style="shape=tableRow;horizontal=0;startSize=0;swimlaneHead=0;swimlaneBody=0;fillColor=none;collapsible=0;dropTarget=0;points=[[0,0.5],[1,0.5]];portConstraint=eastwest;top=0;left=0;right=0;bottom=0;fontFamily=Architects Daughter;fontSource=https%3A%2F%2Ffonts.googleapis.com%2Fcss%3Ffamily%3DArchitects%2BDaughter;sketch=1;curveFitting=1;jiggle=2;" vertex="1" parent="SdlsA0JNyUcxq9mWWmF1-125">
          <mxGeometry y="120" width="180" height="32" as="geometry" />
        </mxCell>
        <mxCell id="SdlsA0JNyUcxq9mWWmF1-136" value="" style="shape=partialRectangle;connectable=0;fillColor=none;top=0;left=0;bottom=0;right=0;editable=1;overflow=hidden;whiteSpace=wrap;html=1;fontFamily=Architects Daughter;fontSource=https%3A%2F%2Ffonts.googleapis.com%2Fcss%3Ffamily%3DArchitects%2BDaughter;sketch=1;curveFitting=1;jiggle=2;" vertex="1" parent="SdlsA0JNyUcxq9mWWmF1-135">
          <mxGeometry width="30" height="32" as="geometry">
            <mxRectangle width="30" height="32" as="alternateBounds" />
          </mxGeometry>
        </mxCell>
        <mxCell id="SdlsA0JNyUcxq9mWWmF1-137" value="altura" style="shape=partialRectangle;connectable=0;fillColor=none;top=0;left=0;bottom=0;right=0;align=left;spacingLeft=6;overflow=hidden;whiteSpace=wrap;html=1;fontFamily=Architects Daughter;fontSource=https%3A%2F%2Ffonts.googleapis.com%2Fcss%3Ffamily%3DArchitects%2BDaughter;sketch=1;curveFitting=1;jiggle=2;" vertex="1" parent="SdlsA0JNyUcxq9mWWmF1-135">
          <mxGeometry x="30" width="150" height="32" as="geometry">
            <mxRectangle width="150" height="32" as="alternateBounds" />
          </mxGeometry>
        </mxCell>
        <mxCell id="SdlsA0JNyUcxq9mWWmF1-138" value="" style="shape=tableRow;horizontal=0;startSize=0;swimlaneHead=0;swimlaneBody=0;fillColor=none;collapsible=0;dropTarget=0;points=[[0,0.5],[1,0.5]];portConstraint=eastwest;top=0;left=0;right=0;bottom=1;fontFamily=Architects Daughter;fontSource=https%3A%2F%2Ffonts.googleapis.com%2Fcss%3Ffamily%3DArchitects%2BDaughter;sketch=1;curveFitting=1;jiggle=2;" vertex="1" parent="SdlsA0JNyUcxq9mWWmF1-125">
          <mxGeometry y="152" width="180" height="30" as="geometry" />
        </mxCell>
        <mxCell id="SdlsA0JNyUcxq9mWWmF1-139" value="fk" style="shape=partialRectangle;connectable=0;fillColor=none;top=0;left=0;bottom=0;right=0;fontStyle=1;overflow=hidden;whiteSpace=wrap;html=1;fontFamily=Architects Daughter;fontSource=https%3A%2F%2Ffonts.googleapis.com%2Fcss%3Ffamily%3DArchitects%2BDaughter;sketch=1;curveFitting=1;jiggle=2;" vertex="1" parent="SdlsA0JNyUcxq9mWWmF1-138">
          <mxGeometry width="30" height="30" as="geometry">
            <mxRectangle width="30" height="30" as="alternateBounds" />
          </mxGeometry>
        </mxCell>
        <mxCell id="SdlsA0JNyUcxq9mWWmF1-140" value="endereco_id" style="shape=partialRectangle;connectable=0;fillColor=none;top=0;left=0;bottom=0;right=0;align=left;spacingLeft=6;fontStyle=5;overflow=hidden;whiteSpace=wrap;html=1;fontFamily=Architects Daughter;fontSource=https%3A%2F%2Ffonts.googleapis.com%2Fcss%3Ffamily%3DArchitects%2BDaughter;sketch=1;curveFitting=1;jiggle=2;" vertex="1" parent="SdlsA0JNyUcxq9mWWmF1-138">
          <mxGeometry x="30" width="150" height="30" as="geometry">
            <mxRectangle width="150" height="30" as="alternateBounds" />
          </mxGeometry>
        </mxCell>
        <mxCell id="SdlsA0JNyUcxq9mWWmF1-141" style="edgeStyle=none;curved=1;rounded=0;orthogonalLoop=1;jettySize=auto;html=1;fontFamily=Architects Daughter;fontSource=https%3A%2F%2Ffonts.googleapis.com%2Fcss%3Ffamily%3DArchitects%2BDaughter;fontSize=16;startSize=14;endArrow=open;endSize=14;sourcePerimeterSpacing=8;targetPerimeterSpacing=8;sketch=1;curveFitting=1;jiggle=2;" edge="1" parent="1" source="SdlsA0JNyUcxq9mWWmF1-126">
          <mxGeometry relative="1" as="geometry">
            <mxPoint x="155" y="380" as="targetPoint" />
          </mxGeometry>
        </mxCell>
        <mxCell id="SdlsA0JNyUcxq9mWWmF1-142" value="pk = Primary key&lt;div&gt;&lt;br&gt;&lt;/div&gt;&lt;div&gt;Chave Primária&lt;/div&gt;" style="shape=partialRectangle;connectable=0;fillColor=none;top=0;left=0;bottom=0;right=0;align=left;spacingLeft=6;overflow=hidden;whiteSpace=wrap;html=1;fontFamily=Architects Daughter;fontSource=https%3A%2F%2Ffonts.googleapis.com%2Fcss%3Ffamily%3DArchitects%2BDaughter;sketch=1;curveFitting=1;jiggle=2;" vertex="1" parent="1">
          <mxGeometry x="40" y="351" width="110" height="55" as="geometry">
            <mxRectangle width="150" height="30" as="alternateBounds" />
          </mxGeometry>
        </mxCell>
        <mxCell id="SdlsA0JNyUcxq9mWWmF1-143" value="fk = foreign key&lt;div&gt;&lt;br&gt;&lt;/div&gt;&lt;div&gt;Chave Estrangeira&lt;/div&gt;" style="shape=partialRectangle;connectable=0;fillColor=none;top=0;left=0;bottom=0;right=0;align=left;spacingLeft=6;overflow=hidden;whiteSpace=wrap;html=1;fontFamily=Architects Daughter;fontSource=https%3A%2F%2Ffonts.googleapis.com%2Fcss%3Ffamily%3DArchitects%2BDaughter;sketch=1;curveFitting=1;jiggle=2;" vertex="1" parent="1">
          <mxGeometry x="40" y="472.5" width="110" height="55" as="geometry">
            <mxRectangle width="150" height="30" as="alternateBounds" />
          </mxGeometry>
        </mxCell>
        <mxCell id="SdlsA0JNyUcxq9mWWmF1-144" style="edgeStyle=none;curved=1;rounded=0;orthogonalLoop=1;jettySize=auto;html=1;fontFamily=Architects Daughter;fontSource=https%3A%2F%2Ffonts.googleapis.com%2Fcss%3Ffamily%3DArchitects%2BDaughter;fontSize=16;startSize=14;endArrow=open;endSize=14;sourcePerimeterSpacing=8;targetPerimeterSpacing=8;exitX=0;exitY=0.5;exitDx=0;exitDy=0;sketch=1;curveFitting=1;jiggle=2;" edge="1" parent="1" source="SdlsA0JNyUcxq9mWWmF1-138">
          <mxGeometry relative="1" as="geometry">
            <mxPoint x="151" y="501" as="targetPoint" />
          </mxGeometry>
        </mxCell>
        <mxCell id="SdlsA0JNyUcxq9mWWmF1-145" value="Endereco" style="shape=table;startSize=30;container=1;collapsible=1;childLayout=tableLayout;fixedRows=1;rowLines=0;fontStyle=1;align=center;resizeLast=1;html=1;fontFamily=Architects Daughter;fontSource=https%3A%2F%2Ffonts.googleapis.com%2Fcss%3Ffamily%3DArchitects%2BDaughter;sketch=1;curveFitting=1;jiggle=2;" vertex="1" parent="1">
          <mxGeometry x="828" y="328" width="180" height="300" as="geometry">
            <mxRectangle x="277" y="-201" width="88" height="30" as="alternateBounds" />
          </mxGeometry>
        </mxCell>
        <mxCell id="SdlsA0JNyUcxq9mWWmF1-146" value="" style="shape=tableRow;horizontal=0;startSize=0;swimlaneHead=0;swimlaneBody=0;fillColor=none;collapsible=0;dropTarget=0;points=[[0,0.5],[1,0.5]];portConstraint=eastwest;top=0;left=0;right=0;bottom=1;fontFamily=Architects Daughter;fontSource=https%3A%2F%2Ffonts.googleapis.com%2Fcss%3Ffamily%3DArchitects%2BDaughter;sketch=1;curveFitting=1;jiggle=2;" vertex="1" parent="SdlsA0JNyUcxq9mWWmF1-145">
          <mxGeometry y="30" width="180" height="30" as="geometry" />
        </mxCell>
        <mxCell id="SdlsA0JNyUcxq9mWWmF1-147" value="PK" style="shape=partialRectangle;connectable=0;fillColor=none;top=0;left=0;bottom=0;right=0;fontStyle=1;overflow=hidden;whiteSpace=wrap;html=1;fontFamily=Architects Daughter;fontSource=https%3A%2F%2Ffonts.googleapis.com%2Fcss%3Ffamily%3DArchitects%2BDaughter;sketch=1;curveFitting=1;jiggle=2;" vertex="1" parent="SdlsA0JNyUcxq9mWWmF1-146">
          <mxGeometry width="30" height="30" as="geometry">
            <mxRectangle width="30" height="30" as="alternateBounds" />
          </mxGeometry>
        </mxCell>
        <mxCell id="SdlsA0JNyUcxq9mWWmF1-148" value="ID" style="shape=partialRectangle;connectable=0;fillColor=none;top=0;left=0;bottom=0;right=0;align=left;spacingLeft=6;fontStyle=5;overflow=hidden;whiteSpace=wrap;html=1;fontFamily=Architects Daughter;fontSource=https%3A%2F%2Ffonts.googleapis.com%2Fcss%3Ffamily%3DArchitects%2BDaughter;sketch=1;curveFitting=1;jiggle=2;" vertex="1" parent="SdlsA0JNyUcxq9mWWmF1-146">
          <mxGeometry x="30" width="150" height="30" as="geometry">
            <mxRectangle width="150" height="30" as="alternateBounds" />
          </mxGeometry>
        </mxCell>
        <mxCell id="SdlsA0JNyUcxq9mWWmF1-149" value="" style="shape=tableRow;horizontal=0;startSize=0;swimlaneHead=0;swimlaneBody=0;fillColor=none;collapsible=0;dropTarget=0;points=[[0,0.5],[1,0.5]];portConstraint=eastwest;top=0;left=0;right=0;bottom=0;fontFamily=Architects Daughter;fontSource=https%3A%2F%2Ffonts.googleapis.com%2Fcss%3Ffamily%3DArchitects%2BDaughter;sketch=1;curveFitting=1;jiggle=2;" vertex="1" parent="SdlsA0JNyUcxq9mWWmF1-145">
          <mxGeometry y="60" width="180" height="30" as="geometry" />
        </mxCell>
        <mxCell id="SdlsA0JNyUcxq9mWWmF1-150" value="" style="shape=partialRectangle;connectable=0;fillColor=none;top=0;left=0;bottom=0;right=0;editable=1;overflow=hidden;whiteSpace=wrap;html=1;fontFamily=Architects Daughter;fontSource=https%3A%2F%2Ffonts.googleapis.com%2Fcss%3Ffamily%3DArchitects%2BDaughter;sketch=1;curveFitting=1;jiggle=2;" vertex="1" parent="SdlsA0JNyUcxq9mWWmF1-149">
          <mxGeometry width="30" height="30" as="geometry">
            <mxRectangle width="30" height="30" as="alternateBounds" />
          </mxGeometry>
        </mxCell>
        <mxCell id="SdlsA0JNyUcxq9mWWmF1-151" value="cep" style="shape=partialRectangle;connectable=0;fillColor=none;top=0;left=0;bottom=0;right=0;align=left;spacingLeft=6;overflow=hidden;whiteSpace=wrap;html=1;fontFamily=Architects Daughter;fontSource=https%3A%2F%2Ffonts.googleapis.com%2Fcss%3Ffamily%3DArchitects%2BDaughter;sketch=1;curveFitting=1;jiggle=2;" vertex="1" parent="SdlsA0JNyUcxq9mWWmF1-149">
          <mxGeometry x="30" width="150" height="30" as="geometry">
            <mxRectangle width="150" height="30" as="alternateBounds" />
          </mxGeometry>
        </mxCell>
        <mxCell id="SdlsA0JNyUcxq9mWWmF1-152" value="" style="shape=tableRow;horizontal=0;startSize=0;swimlaneHead=0;swimlaneBody=0;fillColor=none;collapsible=0;dropTarget=0;points=[[0,0.5],[1,0.5]];portConstraint=eastwest;top=0;left=0;right=0;bottom=0;fontFamily=Architects Daughter;fontSource=https%3A%2F%2Ffonts.googleapis.com%2Fcss%3Ffamily%3DArchitects%2BDaughter;sketch=1;curveFitting=1;jiggle=2;" vertex="1" parent="SdlsA0JNyUcxq9mWWmF1-145">
          <mxGeometry y="90" width="180" height="30" as="geometry" />
        </mxCell>
        <mxCell id="SdlsA0JNyUcxq9mWWmF1-153" value="" style="shape=partialRectangle;connectable=0;fillColor=none;top=0;left=0;bottom=0;right=0;editable=1;overflow=hidden;whiteSpace=wrap;html=1;fontFamily=Architects Daughter;fontSource=https%3A%2F%2Ffonts.googleapis.com%2Fcss%3Ffamily%3DArchitects%2BDaughter;sketch=1;curveFitting=1;jiggle=2;" vertex="1" parent="SdlsA0JNyUcxq9mWWmF1-152">
          <mxGeometry width="30" height="30" as="geometry">
            <mxRectangle width="30" height="30" as="alternateBounds" />
          </mxGeometry>
        </mxCell>
        <mxCell id="SdlsA0JNyUcxq9mWWmF1-154" value="pais" style="shape=partialRectangle;connectable=0;fillColor=none;top=0;left=0;bottom=0;right=0;align=left;spacingLeft=6;overflow=hidden;whiteSpace=wrap;html=1;fontFamily=Architects Daughter;fontSource=https%3A%2F%2Ffonts.googleapis.com%2Fcss%3Ffamily%3DArchitects%2BDaughter;sketch=1;curveFitting=1;jiggle=2;" vertex="1" parent="SdlsA0JNyUcxq9mWWmF1-152">
          <mxGeometry x="30" width="150" height="30" as="geometry">
            <mxRectangle width="150" height="30" as="alternateBounds" />
          </mxGeometry>
        </mxCell>
        <mxCell id="SdlsA0JNyUcxq9mWWmF1-155" value="" style="shape=tableRow;horizontal=0;startSize=0;swimlaneHead=0;swimlaneBody=0;fillColor=none;collapsible=0;dropTarget=0;points=[[0,0.5],[1,0.5]];portConstraint=eastwest;top=0;left=0;right=0;bottom=0;fontFamily=Architects Daughter;fontSource=https%3A%2F%2Ffonts.googleapis.com%2Fcss%3Ffamily%3DArchitects%2BDaughter;sketch=1;curveFitting=1;jiggle=2;" vertex="1" parent="SdlsA0JNyUcxq9mWWmF1-145">
          <mxGeometry y="120" width="180" height="30" as="geometry" />
        </mxCell>
        <mxCell id="SdlsA0JNyUcxq9mWWmF1-156" value="" style="shape=partialRectangle;connectable=0;fillColor=none;top=0;left=0;bottom=0;right=0;editable=1;overflow=hidden;whiteSpace=wrap;html=1;fontFamily=Architects Daughter;fontSource=https%3A%2F%2Ffonts.googleapis.com%2Fcss%3Ffamily%3DArchitects%2BDaughter;sketch=1;curveFitting=1;jiggle=2;" vertex="1" parent="SdlsA0JNyUcxq9mWWmF1-155">
          <mxGeometry width="30" height="30" as="geometry">
            <mxRectangle width="30" height="30" as="alternateBounds" />
          </mxGeometry>
        </mxCell>
        <mxCell id="SdlsA0JNyUcxq9mWWmF1-157" value="estado" style="shape=partialRectangle;connectable=0;fillColor=none;top=0;left=0;bottom=0;right=0;align=left;spacingLeft=6;overflow=hidden;whiteSpace=wrap;html=1;fontFamily=Architects Daughter;fontSource=https%3A%2F%2Ffonts.googleapis.com%2Fcss%3Ffamily%3DArchitects%2BDaughter;sketch=1;curveFitting=1;jiggle=2;" vertex="1" parent="SdlsA0JNyUcxq9mWWmF1-155">
          <mxGeometry x="30" width="150" height="30" as="geometry">
            <mxRectangle width="150" height="30" as="alternateBounds" />
          </mxGeometry>
        </mxCell>
        <mxCell id="SdlsA0JNyUcxq9mWWmF1-158" value="" style="shape=tableRow;horizontal=0;startSize=0;swimlaneHead=0;swimlaneBody=0;fillColor=none;collapsible=0;dropTarget=0;points=[[0,0.5],[1,0.5]];portConstraint=eastwest;top=0;left=0;right=0;bottom=0;fontFamily=Architects Daughter;fontSource=https%3A%2F%2Ffonts.googleapis.com%2Fcss%3Ffamily%3DArchitects%2BDaughter;sketch=1;curveFitting=1;jiggle=2;" vertex="1" parent="SdlsA0JNyUcxq9mWWmF1-145">
          <mxGeometry y="150" width="180" height="30" as="geometry" />
        </mxCell>
        <mxCell id="SdlsA0JNyUcxq9mWWmF1-159" value="" style="shape=partialRectangle;connectable=0;fillColor=none;top=0;left=0;bottom=0;right=0;editable=1;overflow=hidden;whiteSpace=wrap;html=1;fontFamily=Architects Daughter;fontSource=https%3A%2F%2Ffonts.googleapis.com%2Fcss%3Ffamily%3DArchitects%2BDaughter;sketch=1;curveFitting=1;jiggle=2;" vertex="1" parent="SdlsA0JNyUcxq9mWWmF1-158">
          <mxGeometry width="30" height="30" as="geometry">
            <mxRectangle width="30" height="30" as="alternateBounds" />
          </mxGeometry>
        </mxCell>
        <mxCell id="SdlsA0JNyUcxq9mWWmF1-160" value="cidade" style="shape=partialRectangle;connectable=0;fillColor=none;top=0;left=0;bottom=0;right=0;align=left;spacingLeft=6;overflow=hidden;whiteSpace=wrap;html=1;fontFamily=Architects Daughter;fontSource=https%3A%2F%2Ffonts.googleapis.com%2Fcss%3Ffamily%3DArchitects%2BDaughter;sketch=1;curveFitting=1;jiggle=2;" vertex="1" parent="SdlsA0JNyUcxq9mWWmF1-158">
          <mxGeometry x="30" width="150" height="30" as="geometry">
            <mxRectangle width="150" height="30" as="alternateBounds" />
          </mxGeometry>
        </mxCell>
        <mxCell id="SdlsA0JNyUcxq9mWWmF1-161" value="" style="shape=tableRow;horizontal=0;startSize=0;swimlaneHead=0;swimlaneBody=0;fillColor=none;collapsible=0;dropTarget=0;points=[[0,0.5],[1,0.5]];portConstraint=eastwest;top=0;left=0;right=0;bottom=0;fontFamily=Architects Daughter;fontSource=https%3A%2F%2Ffonts.googleapis.com%2Fcss%3Ffamily%3DArchitects%2BDaughter;sketch=1;curveFitting=1;jiggle=2;" vertex="1" parent="SdlsA0JNyUcxq9mWWmF1-145">
          <mxGeometry y="180" width="180" height="30" as="geometry" />
        </mxCell>
        <mxCell id="SdlsA0JNyUcxq9mWWmF1-162" value="" style="shape=partialRectangle;connectable=0;fillColor=none;top=0;left=0;bottom=0;right=0;editable=1;overflow=hidden;whiteSpace=wrap;html=1;fontFamily=Architects Daughter;fontSource=https%3A%2F%2Ffonts.googleapis.com%2Fcss%3Ffamily%3DArchitects%2BDaughter;sketch=1;curveFitting=1;jiggle=2;" vertex="1" parent="SdlsA0JNyUcxq9mWWmF1-161">
          <mxGeometry width="30" height="30" as="geometry">
            <mxRectangle width="30" height="30" as="alternateBounds" />
          </mxGeometry>
        </mxCell>
        <mxCell id="SdlsA0JNyUcxq9mWWmF1-163" value="bairro" style="shape=partialRectangle;connectable=0;fillColor=none;top=0;left=0;bottom=0;right=0;align=left;spacingLeft=6;overflow=hidden;whiteSpace=wrap;html=1;fontFamily=Architects Daughter;fontSource=https%3A%2F%2Ffonts.googleapis.com%2Fcss%3Ffamily%3DArchitects%2BDaughter;sketch=1;curveFitting=1;jiggle=2;" vertex="1" parent="SdlsA0JNyUcxq9mWWmF1-161">
          <mxGeometry x="30" width="150" height="30" as="geometry">
            <mxRectangle width="150" height="30" as="alternateBounds" />
          </mxGeometry>
        </mxCell>
        <mxCell id="SdlsA0JNyUcxq9mWWmF1-164" value="" style="shape=tableRow;horizontal=0;startSize=0;swimlaneHead=0;swimlaneBody=0;fillColor=none;collapsible=0;dropTarget=0;points=[[0,0.5],[1,0.5]];portConstraint=eastwest;top=0;left=0;right=0;bottom=0;fontFamily=Architects Daughter;fontSource=https%3A%2F%2Ffonts.googleapis.com%2Fcss%3Ffamily%3DArchitects%2BDaughter;sketch=1;curveFitting=1;jiggle=2;" vertex="1" parent="SdlsA0JNyUcxq9mWWmF1-145">
          <mxGeometry y="210" width="180" height="30" as="geometry" />
        </mxCell>
        <mxCell id="SdlsA0JNyUcxq9mWWmF1-165" value="" style="shape=partialRectangle;connectable=0;fillColor=none;top=0;left=0;bottom=0;right=0;editable=1;overflow=hidden;whiteSpace=wrap;html=1;fontFamily=Architects Daughter;fontSource=https%3A%2F%2Ffonts.googleapis.com%2Fcss%3Ffamily%3DArchitects%2BDaughter;sketch=1;curveFitting=1;jiggle=2;" vertex="1" parent="SdlsA0JNyUcxq9mWWmF1-164">
          <mxGeometry width="30" height="30" as="geometry">
            <mxRectangle width="30" height="30" as="alternateBounds" />
          </mxGeometry>
        </mxCell>
        <mxCell id="SdlsA0JNyUcxq9mWWmF1-166" value="rua" style="shape=partialRectangle;connectable=0;fillColor=none;top=0;left=0;bottom=0;right=0;align=left;spacingLeft=6;overflow=hidden;whiteSpace=wrap;html=1;fontFamily=Architects Daughter;fontSource=https%3A%2F%2Ffonts.googleapis.com%2Fcss%3Ffamily%3DArchitects%2BDaughter;sketch=1;curveFitting=1;jiggle=2;" vertex="1" parent="SdlsA0JNyUcxq9mWWmF1-164">
          <mxGeometry x="30" width="150" height="30" as="geometry">
            <mxRectangle width="150" height="30" as="alternateBounds" />
          </mxGeometry>
        </mxCell>
        <mxCell id="SdlsA0JNyUcxq9mWWmF1-167" value="" style="shape=tableRow;horizontal=0;startSize=0;swimlaneHead=0;swimlaneBody=0;fillColor=none;collapsible=0;dropTarget=0;points=[[0,0.5],[1,0.5]];portConstraint=eastwest;top=0;left=0;right=0;bottom=0;fontFamily=Architects Daughter;fontSource=https%3A%2F%2Ffonts.googleapis.com%2Fcss%3Ffamily%3DArchitects%2BDaughter;sketch=1;curveFitting=1;jiggle=2;" vertex="1" parent="SdlsA0JNyUcxq9mWWmF1-145">
          <mxGeometry y="240" width="180" height="30" as="geometry" />
        </mxCell>
        <mxCell id="SdlsA0JNyUcxq9mWWmF1-168" value="" style="shape=partialRectangle;connectable=0;fillColor=none;top=0;left=0;bottom=0;right=0;editable=1;overflow=hidden;whiteSpace=wrap;html=1;fontFamily=Architects Daughter;fontSource=https%3A%2F%2Ffonts.googleapis.com%2Fcss%3Ffamily%3DArchitects%2BDaughter;sketch=1;curveFitting=1;jiggle=2;" vertex="1" parent="SdlsA0JNyUcxq9mWWmF1-167">
          <mxGeometry width="30" height="30" as="geometry">
            <mxRectangle width="30" height="30" as="alternateBounds" />
          </mxGeometry>
        </mxCell>
        <mxCell id="SdlsA0JNyUcxq9mWWmF1-169" value="numero" style="shape=partialRectangle;connectable=0;fillColor=none;top=0;left=0;bottom=0;right=0;align=left;spacingLeft=6;overflow=hidden;whiteSpace=wrap;html=1;fontFamily=Architects Daughter;fontSource=https%3A%2F%2Ffonts.googleapis.com%2Fcss%3Ffamily%3DArchitects%2BDaughter;sketch=1;curveFitting=1;jiggle=2;" vertex="1" parent="SdlsA0JNyUcxq9mWWmF1-167">
          <mxGeometry x="30" width="150" height="30" as="geometry">
            <mxRectangle width="150" height="30" as="alternateBounds" />
          </mxGeometry>
        </mxCell>
        <mxCell id="SdlsA0JNyUcxq9mWWmF1-170" value="" style="shape=tableRow;horizontal=0;startSize=0;swimlaneHead=0;swimlaneBody=0;fillColor=none;collapsible=0;dropTarget=0;points=[[0,0.5],[1,0.5]];portConstraint=eastwest;top=0;left=0;right=0;bottom=0;fontFamily=Architects Daughter;fontSource=https%3A%2F%2Ffonts.googleapis.com%2Fcss%3Ffamily%3DArchitects%2BDaughter;sketch=1;curveFitting=1;jiggle=2;" vertex="1" parent="SdlsA0JNyUcxq9mWWmF1-145">
          <mxGeometry y="270" width="180" height="30" as="geometry" />
        </mxCell>
        <mxCell id="SdlsA0JNyUcxq9mWWmF1-171" value="" style="shape=partialRectangle;connectable=0;fillColor=none;top=0;left=0;bottom=0;right=0;editable=1;overflow=hidden;whiteSpace=wrap;html=1;fontFamily=Architects Daughter;fontSource=https%3A%2F%2Ffonts.googleapis.com%2Fcss%3Ffamily%3DArchitects%2BDaughter;sketch=1;curveFitting=1;jiggle=2;" vertex="1" parent="SdlsA0JNyUcxq9mWWmF1-170">
          <mxGeometry width="30" height="30" as="geometry">
            <mxRectangle width="30" height="30" as="alternateBounds" />
          </mxGeometry>
        </mxCell>
        <mxCell id="SdlsA0JNyUcxq9mWWmF1-172" value="complemento" style="shape=partialRectangle;connectable=0;fillColor=none;top=0;left=0;bottom=0;right=0;align=left;spacingLeft=6;overflow=hidden;whiteSpace=wrap;html=1;fontFamily=Architects Daughter;fontSource=https%3A%2F%2Ffonts.googleapis.com%2Fcss%3Ffamily%3DArchitects%2BDaughter;sketch=1;curveFitting=1;jiggle=2;" vertex="1" parent="SdlsA0JNyUcxq9mWWmF1-170">
          <mxGeometry x="30" width="150" height="30" as="geometry">
            <mxRectangle width="150" height="30" as="alternateBounds" />
          </mxGeometry>
        </mxCell>
        <mxCell id="SdlsA0JNyUcxq9mWWmF1-173" style="edgeStyle=none;curved=1;rounded=0;orthogonalLoop=1;jettySize=auto;html=1;entryX=0;entryY=0.5;entryDx=0;entryDy=0;fontFamily=Architects Daughter;fontSource=https%3A%2F%2Ffonts.googleapis.com%2Fcss%3Ffamily%3DArchitects%2BDaughter;fontSize=16;startSize=14;endArrow=open;endSize=14;sourcePerimeterSpacing=8;targetPerimeterSpacing=8;exitX=1;exitY=0.5;exitDx=0;exitDy=0;sketch=1;curveFitting=1;jiggle=2;" edge="1" parent="1" source="SdlsA0JNyUcxq9mWWmF1-138" target="SdlsA0JNyUcxq9mWWmF1-146">
          <mxGeometry relative="1" as="geometry" />
        </mxCell>
        <mxCell id="SdlsA0JNyUcxq9mWWmF1-174" value="Uma chave Estrangeira (FK)&amp;nbsp;&lt;i style=&quot;font-weight: bold; text-decoration-line: underline;&quot;&gt;SEMPRE&lt;/i&gt;&amp;nbsp;irá referenciar uma chave primária (PK)" style="shape=partialRectangle;connectable=0;fillColor=none;top=0;left=0;bottom=0;right=0;align=left;spacingLeft=6;overflow=hidden;whiteSpace=wrap;html=1;fontFamily=Architects Daughter;fontSource=https%3A%2F%2Ffonts.googleapis.com%2Fcss%3Ffamily%3DArchitects%2BDaughter;sketch=1;curveFitting=1;jiggle=2;fontSize=30;" vertex="1" parent="1">
          <mxGeometry x="539" y="23" width="626" height="83" as="geometry">
            <mxRectangle width="150" height="30" as="alternateBounds" />
          </mxGeometry>
        </mxCell>
        <mxCell id="SdlsA0JNyUcxq9mWWmF1-175" style="edgeStyle=none;curved=1;rounded=0;orthogonalLoop=1;jettySize=auto;html=1;fontFamily=Architects Daughter;fontSource=https%3A%2F%2Ffonts.googleapis.com%2Fcss%3Ffamily%3DArchitects%2BDaughter;fontSize=16;startSize=14;endArrow=open;endSize=14;sourcePerimeterSpacing=8;targetPerimeterSpacing=8;sketch=1;curveFitting=1;jiggle=2;" edge="1" parent="1">
          <mxGeometry relative="1" as="geometry">
            <mxPoint x="758" y="108" as="targetPoint" />
            <mxPoint x="636" y="433" as="sourcePoint" />
          </mxGeometry>
        </mxCell>
        <mxCell id="SdlsA0JNyUcxq9mWWmF1-176" value="RELACIONAMENTO&lt;div&gt;ENTRE AS TABELAS&lt;/div&gt;" style="edgeLabel;html=1;align=center;verticalAlign=middle;resizable=0;points=[];fontSize=16;fontFamily=Architects Daughter;fontSource=https%3A%2F%2Ffonts.googleapis.com%2Fcss%3Ffamily%3DArchitects%2BDaughter;sketch=1;curveFitting=1;jiggle=2;" vertex="1" connectable="0" parent="SdlsA0JNyUcxq9mWWmF1-175">
          <mxGeometry x="0.0618" y="-1" relative="1" as="geometry">
            <mxPoint as="offset" />
          </mxGeometry>
        </mxCell>
        <mxCell id="SdlsA0JNyUcxq9mWWmF1-230" value="" style="edgeStyle=none;orthogonalLoop=1;jettySize=auto;html=1;rounded=0;sketch=1;hachureGap=4;jiggle=2;curveFitting=1;fontFamily=Architects Daughter;fontSource=https%3A%2F%2Ffonts.googleapis.com%2Fcss%3Ffamily%3DArchitects%2BDaughter;fontSize=16;startSize=14;endArrow=open;endSize=14;sourcePerimeterSpacing=8;targetPerimeterSpacing=8;curved=1;entryX=1;entryY=0;entryDx=0;entryDy=0;" edge="1" parent="1" target="SdlsA0JNyUcxq9mWWmF1-35">
          <mxGeometry width="140" relative="1" as="geometry">
            <mxPoint x="648" y="537" as="sourcePoint" />
            <mxPoint x="-316" y="1313" as="targetPoint" />
            <Array as="points" />
          </mxGeometry>
        </mxCell>
        <mxCell id="SdlsA0JNyUcxq9mWWmF1-231" value="REPRESENTAÇÃO DE RELACIONAMENTO&lt;div&gt;ENTRTE AS ENTIDADES.&lt;/div&gt;" style="edgeLabel;html=1;align=center;verticalAlign=middle;resizable=0;points=[];fontSize=30;sketch=1;hachureGap=4;jiggle=2;curveFitting=1;fontFamily=Architects Daughter;fontSource=https%3A%2F%2Ffonts.googleapis.com%2Fcss%3Ffamily%3DArchitects%2BDaughter;" vertex="1" connectable="0" parent="SdlsA0JNyUcxq9mWWmF1-230">
          <mxGeometry x="0.051" y="-1" relative="1" as="geometry">
            <mxPoint y="1" as="offset" />
          </mxGeometry>
        </mxCell>
        <mxCell id="SdlsA0JNyUcxq9mWWmF1-246" value="" style="edgeStyle=segmentEdgeStyle;endArrow=classic;html=1;curved=0;rounded=0;endSize=8;startSize=8;sketch=1;hachureGap=4;jiggle=2;curveFitting=1;fontFamily=Architects Daughter;fontSource=https%3A%2F%2Ffonts.googleapis.com%2Fcss%3Ffamily%3DArchitects%2BDaughter;fontSize=16;sourcePerimeterSpacing=8;targetPerimeterSpacing=8;entryX=0;entryY=0.5;entryDx=0;entryDy=0;" edge="1" parent="1" target="SdlsA0JNyUcxq9mWWmF1-92">
          <mxGeometry width="50" height="50" relative="1" as="geometry">
            <mxPoint x="-583" y="1515" as="sourcePoint" />
            <mxPoint x="-1324.9399999999998" y="2155.5" as="targetPoint" />
            <Array as="points">
              <mxPoint x="-581" y="1527" />
              <mxPoint x="-581" y="1507" />
              <mxPoint x="-542" y="1507" />
              <mxPoint x="-542" y="1777" />
              <mxPoint x="-1527" y="1777" />
              <mxPoint x="-1527" y="2157" />
              <mxPoint x="-1325" y="2157" />
              <mxPoint x="-1325" y="2151" />
            </Array>
          </mxGeometry>
        </mxCell>
        <mxCell id="SdlsA0JNyUcxq9mWWmF1-248" value="" style="edgeStyle=segmentEdgeStyle;endArrow=classic;html=1;curved=0;rounded=0;endSize=8;startSize=8;sketch=1;hachureGap=4;jiggle=2;curveFitting=1;fontFamily=Architects Daughter;fontSource=https%3A%2F%2Ffonts.googleapis.com%2Fcss%3Ffamily%3DArchitects%2BDaughter;fontSize=16;sourcePerimeterSpacing=8;targetPerimeterSpacing=8;entryX=0;entryY=0.5;entryDx=0;entryDy=0;" edge="1" parent="1">
          <mxGeometry width="50" height="50" relative="1" as="geometry">
            <mxPoint x="-583" y="1627" as="sourcePoint" />
            <mxPoint x="-1299" y="2263" as="targetPoint" />
            <Array as="points">
              <mxPoint x="-583" y="1639" />
              <mxPoint x="-581" y="1639" />
              <mxPoint x="-581" y="1619" />
              <mxPoint x="-454" y="1619" />
              <mxPoint x="-454" y="1889" />
              <mxPoint x="-1581" y="1889" />
              <mxPoint x="-1581" y="2269" />
              <mxPoint x="-1325" y="2269" />
              <mxPoint x="-1325" y="2263" />
            </Array>
          </mxGeometry>
        </mxCell>
        <mxCell id="SdlsA0JNyUcxq9mWWmF1-249" value="" style="edgeStyle=segmentEdgeStyle;endArrow=classic;html=1;curved=0;rounded=0;endSize=8;startSize=8;sketch=1;hachureGap=4;jiggle=2;curveFitting=1;fontFamily=Architects Daughter;fontSource=https%3A%2F%2Ffonts.googleapis.com%2Fcss%3Ffamily%3DArchitects%2BDaughter;fontSize=16;sourcePerimeterSpacing=8;targetPerimeterSpacing=8;entryX=0;entryY=0.5;entryDx=0;entryDy=0;" edge="1" parent="1">
          <mxGeometry width="50" height="50" relative="1" as="geometry">
            <mxPoint x="-585" y="1727" as="sourcePoint" />
            <mxPoint x="-1301" y="2363" as="targetPoint" />
            <Array as="points">
              <mxPoint x="-585" y="1739" />
              <mxPoint x="-583" y="1739" />
              <mxPoint x="-583" y="1719" />
              <mxPoint x="-341" y="1719" />
              <mxPoint x="-341" y="1989" />
              <mxPoint x="-1583" y="1989" />
              <mxPoint x="-1583" y="2369" />
              <mxPoint x="-1327" y="2369" />
              <mxPoint x="-1327" y="2363" />
            </Array>
          </mxGeometry>
        </mxCell>
        <mxCell id="SdlsA0JNyUcxq9mWWmF1-250" value="" style="edgeStyle=none;orthogonalLoop=1;jettySize=auto;html=1;rounded=0;sketch=1;hachureGap=4;jiggle=2;curveFitting=1;fontFamily=Architects Daughter;fontSource=https%3A%2F%2Ffonts.googleapis.com%2Fcss%3Ffamily%3DArchitects%2BDaughter;fontSize=16;startSize=14;endArrow=open;endSize=14;sourcePerimeterSpacing=8;targetPerimeterSpacing=8;curved=1;entryX=0;entryY=0.5;entryDx=0;entryDy=0;" edge="1" parent="1" target="SdlsA0JNyUcxq9mWWmF1-253">
          <mxGeometry width="140" relative="1" as="geometry">
            <mxPoint x="-364" y="1631" as="sourcePoint" />
            <mxPoint x="1633" y="1501" as="targetPoint" />
            <Array as="points" />
          </mxGeometry>
        </mxCell>
        <mxCell id="SdlsA0JNyUcxq9mWWmF1-255" value="" style="group" vertex="1" connectable="0" parent="1">
          <mxGeometry x="1671" y="1459" width="1137" height="102" as="geometry" />
        </mxCell>
        <mxCell id="SdlsA0JNyUcxq9mWWmF1-252" value="A pessoa 1 (João Vitor) está se relacionando com o endereço 1 (Paraná)" style="text;strokeColor=none;fillColor=none;html=1;align=center;verticalAlign=middle;whiteSpace=wrap;rounded=0;fontSize=25;fontFamily=Architects Daughter;fontSource=https%3A%2F%2Ffonts.googleapis.com%2Fcss%3Ffamily%3DArchitects%2BDaughter;" vertex="1" parent="SdlsA0JNyUcxq9mWWmF1-255">
          <mxGeometry width="1007" height="34" as="geometry" />
        </mxCell>
        <mxCell id="SdlsA0JNyUcxq9mWWmF1-253" value="A pessoa 2 (Pedro Alberto) está se relacionando com o endereço 2 (São Paulo)" style="text;strokeColor=none;fillColor=none;html=1;align=center;verticalAlign=middle;whiteSpace=wrap;rounded=0;fontSize=25;fontFamily=Architects Daughter;fontSource=https%3A%2F%2Ffonts.googleapis.com%2Fcss%3Ffamily%3DArchitects%2BDaughter;" vertex="1" parent="SdlsA0JNyUcxq9mWWmF1-255">
          <mxGeometry x="49" y="34" width="1007" height="34" as="geometry" />
        </mxCell>
        <mxCell id="SdlsA0JNyUcxq9mWWmF1-254" value="A pessoa 3 (Carlos Machado) está se relacionando com o endereço 3 (Rio Grande do Sul)" style="text;strokeColor=none;fillColor=none;html=1;align=center;verticalAlign=middle;whiteSpace=wrap;rounded=0;fontSize=25;fontFamily=Architects Daughter;fontSource=https%3A%2F%2Ffonts.googleapis.com%2Fcss%3Ffamily%3DArchitects%2BDaughter;" vertex="1" parent="SdlsA0JNyUcxq9mWWmF1-255">
          <mxGeometry x="80" y="68" width="1057" height="34" as="geometry" />
        </mxCell>
      </root>
    </mxGraphModel>
  </diagram>
</mxfile>
